<svg xmlns="http://www.w3.org/2000/svg" xmlns:xlink="http://www.w3.org/1999/xlink" width="776" height="293.1"><rect width="776" height="293.1" rx="5" ry="5" class="a"/><svg y="0%" x="0%"><circle cx="20" cy="20" r="6" fill="#ff5f58"/><circle cx="40" cy="20" r="6" fill="#ffbd2e"/><circle cx="60" cy="20" r="6" fill="#18c132"/></svg><svg height="217.1" viewBox="0 0 72 21.71" width="720" x="23" xmlns="http://www.w3.org/2000/svg" xmlns:xlink="http://www.w3.org/1999/xlink" y="58"><style>@keyframes j{0%{transform:translateX(0)}.6%{transform:translateX(-72px)}.9%{transform:translateX(-720px)}.8%{transform:translateX(-360px)}1%{transform:translateX(-1440px)}1.1%{transform:translateX(-1080px)}7.1%{transform:translateX(-1512px)}1.8%{transform:translateX(-1584px)}}.a{fill:#282d35}.f,.g{white-space:pre}.f{fill:#a8cc8c;font-weight:700}.g{fill:#b9c0cb}</style><g font-family="Monaco,Consolas,Menlo,'Bitstream Vera Sans Mono','Powerline Symbols',monospace" font-size="1.67"><defs><symbol id="1"><text y="1.67" class="f">$</text><text x="2.004" y="1.67" class="g">git</text></symbol><symbol id="2"><text y="1.67" class="f">$</text><text x="2.004" y="1.67" class="g">git</text><text x="6.012" y="1.67" class="g">vanity</text></symbol><symbol id="3"><text y="1.67" class="f">$</text><text x="2.004" y="1.67" class="g">git</text><text x="6.012" y="1.67" class="g">vanity</text><text x="13.026" y="1.67" class="g">-p</text></symbol><symbol id="4"><text y="1.67" class="f">$</text><text x="2.004" y="1.67" class="g">git</text><text x="6.012" y="1.67" class="g">vanity</text><text x="13.026" y="1.67" class="g">-p</text><text x="16.032" y="1.67" class="g">coffee</text></symbol><symbol id="a"><path fill="transparent" d="M0 0h72v11H0z"/></symbol><symbol id="b"><path fill="#6f7683" d="M0 0h1.102v2.171H0z"/></symbol></defs><path class="a" d="M0 0h72v21.71H0z"/><g style="animation-duration:5.017s;animation-iteration-count:infinite;animation-name:j;animation-timing-function:steps(1,end)"><svg width="1656"><svg><use xlink:href="#a"/><use xlink:href="#b" x="-.004"/></svg><svg x="72"><use xlink:href="#a"/><use xlink:href="#b" x="2.996"/><text y="1.67" class="f">$</text><text x="2.004" y="1.67" class="g">g</text></svg><svg x="144"><use xlink:href="#a"/><use xlink:href="#b" x="3.996"/><text y="1.67" class="f">$</text><text x="2.004" y="1.67" class="g">gi</text></svg><svg x="216"><use xlink:href="#a"/><use xlink:href="#b" x="4.996"/><use xlink:href="#1"/></svg><svg x="288"><use xlink:href="#a"/><use xlink:href="#b" x="5.996"/><use xlink:href="#1"/></svg><svg x="360"><use xlink:href="#a"/><use xlink:href="#b" x="6.996"/><text y="1.67" class="f">$</text><text x="2.004" y="1.67" class="g">git</text><text x="6.012" y="1.67" class="g">v</text></svg><svg x="432"><use xlink:href="#a"/><use xlink:href="#b" x="7.996"/><text y="1.67" class="f">$</text><text x="2.004" y="1.67" class="g">git</text><text x="6.012" y="1.67" class="g">va</text></svg><svg x="504"><use xlink:href="#a"/><use xlink:href="#b" x="8.996"/><text y="1.67" class="f">$</text><text x="2.004" y="1.67" class="g">git</text><text x="6.012" y="1.67" class="g">van</text></svg><svg x="576"><use xlink:href="#a"/><use xlink:href="#b" x="9.996"/><text y="1.67" class="f">$</text><text x="2.004" y="1.67" class="g">git</text><text x="6.012" y="1.67" class="g">vani</text></svg><svg x="648"><use xlink:href="#a"/><use xlink:href="#b" x="10.996"/><text y="1.67" class="f">$</text><text x="2.004" y="1.67" class="g">git</text><text x="6.012" y="1.67" class="g">vanit</text></svg><svg x="720"><use xlink:href="#a"/><use xlink:href="#b" x="11.996"/><use xlink:href="#2"/></svg><svg x="792"><use xlink:href="#a"/><use xlink:href="#b" x="12.996"/><use xlink:href="#2"/></svg><svg x="864"><use xlink:href="#a"/><use xlink:href="#b" x="13.996"/><text y="1.67" class="f">$</text><text x="2.004" y="1.67" class="g">git</text><text x="6.012" y="1.67" class="g">vanity</text><text x="13.026" y="1.67" class="g">-</text></svg><svg x="936"><use xlink:href="#a"/><use xlink:href="#b" x="14.996"/><use xlink:href="#3"/></svg><svg x="1008"><use xlink:href="#a"/><use xlink:href="#b" x="15.996"/><use xlink:href="#3"/></svg><svg x="1080"><use xlink:href="#a"/><use xlink:href="#b" x="16.996"/><text y="1.67" class="f">$</text><text x="2.004" y="1.67" class="g">git</text><text x="6.012" y="1.67" class="g">vanity</text><text x="13.026" y="1.67" class="g">-p</text><text x="16.032" y="1.67" class="g">c</text></svg><svg x="1152"><use xlink:href="#a"/><use xlink:href="#b" x="17.996"/><text y="1.67" class="f">$</text><text x="2.004" y="1.67" class="g">git</text><text x="6.012" y="1.67" class="g">vanity</text><text x="13.026" y="1.67" class="g">-p</text><text x="16.032" y="1.67" class="g">co</text></svg><svg x="1224"><use xlink:href="#a"/><use xlink:href="#b" x="18.996"/><text y="1.67" class="f">$</text><text x="2.004" y="1.67" class="g">git</text><text x="6.012" y="1.67" class="g">vanity</text><text x="13.026" y="1.67" class="g">-p</text><text x="16.032" y="1.67" class="g">cof</text></svg><svg x="1296"><use xlink:href="#a"/><use xlink:href="#b" x="19.996"/><text y="1.67" class="f">$</text><text x="2.004" y="1.67" class="g">git</text><text x="6.012" y="1.67" class="g">vanity</text><text x="13.026" y="1.67" class="g">-p</text><text x="16.032" y="1.67" class="g">coff</text></svg><svg x="1368"><use xlink:href="#a"/><use xlink:href="#b" x="20.996"/><text y="1.67" class="f">$</text><text x="2.004" y="1.67" class="g">git</text><text x="6.012" y="1.67" class="g">vanity</text><text x="13.026" y="1.67" class="g">-p</text><text x="16.032" y="1.67" class="g">coffe</text></svg><svg x="1440"><use xlink:href="#a"/><use xlink:href="#b" x="21.996"/><use xlink:href="#4"/></svg><svg x="1512"><use xlink:href="#a"/><use xlink:href="#b" x="-.004" y="2.146"/><use xlink:href="#4"/></svg><svg x="1584"><use xlink:href="#a"/><use xlink:href="#b" x="-.004" y="4.317"/><use xlink:href="#4"/><text y="3.841" class="g">✓</text><text x="2.004" y="3.841" class="g">c14296715ae3</text><text x="15.03" y="3.841" class="g">→</text><text x="17.034" y="3.841" class="f">c0ffee</text><text x="23.046" y="3.841" class="g">b03bf2...</text></svg></svg></g></g></svg></svg>