<svg xmlns="http://www.w3.org/2000/svg" xmlns:xlink="http://www.w3.org/1999/xlink" width="776" height="293.1"><rect width="776" height="293.1" rx="5" ry="5" class="a"/><svg y="0%" x="0%"><circle cx="20" cy="20" r="6" fill="#ff5f58"/><circle cx="40" cy="20" r="6" fill="#ffbd2e"/><circle cx="60" cy="20" r="6" fill="#18c132"/></svg><svg height="217.1" viewBox="0 0 72 21.71" width="720" x="23" xmlns="http://www.w3.org/2000/svg" xmlns:xlink="http://www.w3.org/1999/xlink" y="58"><style>@keyframes j{0%{transform:translateX(0)}.5%{transform:translateX(-72px)}7.2%{transform:translateX(-144px)}}.a{fill:#282d35}.f,.g{white-space:pre}.f{fill:#a8cc8c;font-weight:700}.g{fill:#b9c0cb}</style><g font-family="Monaco,Consolas,Menlo,'Bitstream Vera Sans Mono','Powerline Symbols',monospace" font-size="1.67"><defs><symbol id="1"><text y="1.67" class="f">$</text><text x="2.004" y="1.67" class="g">git</text><text x="6.012" y="1.67" class="g">vanity</text><text x="13.026" y="1.67" class="g">cafe</text><text x="18.036" y="1.67" class="g">-n</text></symbol><symbol id="a"><path fill="transparent" d="M0 0h72v11H0z"/></symbol><symbol id="b"><path fill="#6f7683" d="M0 0h1.102v2.171H0z"/></symbol></defs><path class="a" d="M0 0h72v21.71H0z"/><g style="animation-duration:5.027s;animation-iteration-count:infinite;animation-name:j;animation-timing-function:steps(1,end)"><svg width="216"><svg><use xlink:href="#a"/><use xlink:href="#b" x="-.004"/></svg><svg x="72"><use xlink:href="#a"/><use xlink:href="#b" x="-.004" y="2.146"/><use xlink:href="#1"/></svg><svg x="144"><use xlink:href="#a"/><use xlink:href="#b" x="-.004" y="4.317"/><use xlink:href="#1"/><text y="3.841" class="g">✓</text><text x="2.004" y="3.841" class="g">Found</text><text x="8.016" y="3.841" class="g">matching</text><text x="17.034" y="3.841" class="g">hash:</text><text x="23.046" y="3.841" class="f">cafe</text><text x="27.054" y="3.841" class="g">22980948...</text></svg></svg></g></g></svg></svg>