<svg xmlns="http://www.w3.org/2000/svg" xmlns:xlink="http://www.w3.org/1999/xlink" width="776" height="379.94"><rect width="776" height="379.94" rx="5" ry="5" class="a"/><svg y="0%" x="0%"><circle cx="20" cy="20" r="6" fill="#ff5f58"/><circle cx="40" cy="20" r="6" fill="#ffbd2e"/><circle cx="60" cy="20" r="6" fill="#18c132"/></svg><svg height="303.94" viewBox="0 0 72 30.394" width="720" x="23" xmlns="http://www.w3.org/2000/svg" xmlns:xlink="http://www.w3.org/1999/xlink" y="58"><style>@keyframes j{0%{transform:translateX(0)}.5%{transform:translateX(-72px)}10.1%{transform:translateX(-360px)}.9%{transform:translateX(-216px)}39.8%{transform:translateX(-288px)}1.7%{transform:translateX(-432px)}}.a{fill:#282d35}.f,.g{fill:#b9c0cb;white-space:pre}.g{fill:#a8cc8c;font-weight:700}</style><g font-family="Monaco,Consolas,Menlo,'Bitstream Vera Sans Mono','Powerline Symbols',monospace" font-size="1.67"><defs><symbol id="1"><text y="1.67" class="f">#</text><text x="2.004" y="1.67" class="f">normal</text><text x="9.018" y="1.67" class="f">(shows</text><text x="16.032" y="1.67" class="f">output)</text></symbol><symbol id="2"><text y="1.67" class="g">$</text><text x="2.004" y="1.67" class="f">git</text><text x="6.012" y="1.67" class="f">vanity</text><text x="13.026" y="1.67" class="f">cafe</text></symbol><symbol id="3"><text y="1.67" class="f">✓</text><text x="2.004" y="1.67" class="f">71c2c66b5110</text><text x="15.03" y="1.67" class="f">→</text><text x="17.034" y="1.67" class="g">cafe</text><text x="21.042" y="1.67" class="f">cc21a0cd...</text></symbol><symbol id="4"><text y="1.67" class="f">#</text><text x="2.004" y="1.67" class="f">quiet</text><text x="8.016" y="1.67" class="f">(minimal</text><text x="17.034" y="1.67" class="f">output)</text></symbol><symbol id="5"><text y="1.67" class="g">$</text><text x="2.004" y="1.67" class="f">git</text><text x="6.012" y="1.67" class="f">vanity</text><text x="13.026" y="1.67" class="f">cafe</text><text x="18.036" y="1.67" class="f">-q</text></symbol><symbol id="a"><path fill="transparent" d="M0 0h72v15H0z"/></symbol><symbol id="b"><path fill="#6f7683" d="M0 0h1.102v2.171H0z"/></symbol></defs><path class="a" d="M0 0h72v30.394H0z"/><g style="animation-duration:5.028s;animation-iteration-count:infinite;animation-name:j;animation-timing-function:steps(1,end)"><svg width="504"><svg><use xlink:href="#a"/><use xlink:href="#b" x="-.004"/></svg><svg x="72"><use xlink:href="#a"/><use xlink:href="#b" x="-.004" y="2.146"/><use xlink:href="#1"/></svg><svg x="144"><use xlink:href="#a"/><use xlink:href="#b" x="-.004" y="4.317"/><use xlink:href="#1"/><use xlink:href="#2" y="2.171"/></svg><svg x="216"><use xlink:href="#a"/><use xlink:href="#b" x="-.004" y="6.488"/><use xlink:href="#1"/><use xlink:href="#2" y="2.171"/><use xlink:href="#3" y="4.342"/></svg><svg x="288"><use xlink:href="#a"/><use xlink:href="#b" x="-.004" y="8.659"/><use xlink:href="#1"/><use xlink:href="#2" y="2.171"/><use xlink:href="#3" y="4.342"/><use xlink:href="#4" y="6.513"/></svg><svg x="360"><use xlink:href="#a"/><use xlink:href="#b" x="-.004" y="10.83"/><use xlink:href="#1"/><use xlink:href="#2" y="2.171"/><use xlink:href="#3" y="4.342"/><use xlink:href="#4" y="6.513"/><use xlink:href="#5" y="8.684"/></svg><svg x="432"><use xlink:href="#a"/><use xlink:href="#b" x="-.004" y="13.001"/><use xlink:href="#1"/><use xlink:href="#2" y="2.171"/><use xlink:href="#3" y="4.342"/><use xlink:href="#4" y="6.513"/><use xlink:href="#5" y="8.684"/><text y="12.525" class="f">✓</text><text x="2.004" y="12.525" class="f">cafecc21a0cd</text><text x="15.03" y="12.525" class="f">→</text><text x="17.034" y="12.525" class="g">cafe</text><text x="21.042" y="12.525" class="f">22915cdd...</text></svg></svg></g></g></svg></svg>