<svg xmlns="http://www.w3.org/2000/svg" xmlns:xlink="http://www.w3.org/1999/xlink" width="776" height="336.52"><rect width="776" height="336.52" rx="5" ry="5" class="a"/><svg y="0%" x="0%"><circle cx="20" cy="20" r="6" fill="#ff5f58"/><circle cx="40" cy="20" r="6" fill="#ffbd2e"/><circle cx="60" cy="20" r="6" fill="#18c132"/></svg><svg height="260.52" viewBox="0 0 72 26.052" width="720" x="23" xmlns="http://www.w3.org/2000/svg" xmlns:xlink="http://www.w3.org/1999/xlink" y="58"><style>@keyframes j{0%{transform:translateX(0)}.6%{transform:translateX(-1872px)}.9%{transform:translateX(-1656px)}1%{transform:translateX(-1512px)}1.1%{transform:translateX(-1800px)}7.2%{transform:translateX(-1728px)}.2%{transform:translateX(-1944px)}}.a{fill:#282d35}.f,.g{white-space:pre}.f{fill:#a8cc8c;font-weight:700}.g{fill:#b9c0cb}</style><g font-family="Monaco,Consolas,Menlo,'Bitstream Vera Sans Mono','Powerline Symbols',monospace" font-size="1.67"><defs><symbol id="1"><text y="1.67" class="f">$</text><text x="2.004" y="1.67" class="g">git</text></symbol><symbol id="2"><text y="1.67" class="f">$</text><text x="2.004" y="1.67" class="g">git</text><text x="6.012" y="1.67" class="g">vanity</text></symbol><symbol id="3"><text y="1.67" class="f">$</text><text x="2.004" y="1.67" class="g">git</text><text x="6.012" y="1.67" class="g">vanity</text><text x="13.026" y="1.67" class="g">cafe</text></symbol><symbol id="4"><text y="1.67" class="f">$</text><text x="2.004" y="1.67" class="g">git</text><text x="6.012" y="1.67" class="g">vanity</text><text x="13.026" y="1.67" class="g">cafe</text><text x="18.036" y="1.67" class="g">-j</text></symbol><symbol id="5"><text y="1.67" class="f">$</text><text x="2.004" y="1.67" class="g">git</text><text x="6.012" y="1.67" class="g">vanity</text><text x="13.026" y="1.67" class="g">cafe</text><text x="18.036" y="1.67" class="g">-j</text><text x="21.042" y="1.67" class="g">2</text></symbol><symbol id="6"><text y="1.67" class="f">$</text><text x="2.004" y="1.67" class="g">git</text><text x="6.012" y="1.67" class="g">vanity</text><text x="13.026" y="1.67" class="g">cafe</text><text x="18.036" y="1.67" class="g">-j</text><text x="21.042" y="1.67" class="g">2</text><text x="23.046" y="1.67" class="g">-d</text></symbol><symbol id="7"><text y="1.67" class="g">[vanity]</text><text x="9.018" y="1.67" class="g">threads:</text><text x="18.036" y="1.67" class="g">2</text></symbol><symbol id="8"><text y="1.67" class="g">[vanity]</text><text x="9.018" y="1.67" class="g">pattern:</text><text x="18.036" y="1.67" class="g">prefix(&quot;cafe&quot;)</text><text x="33.066" y="1.67" class="g">(start)</text></symbol><symbol id="9"><text y="1.67" class="g">[vanity]</text><text x="9.018" y="1.67" class="g">estimated</text><text x="19.038" y="1.67" class="g">attempts:</text><text x="29.058" y="1.67" class="g">65536</text></symbol><symbol id="10"><text y="1.67" class="g">[vanity]</text><text x="9.018" y="1.67" class="g">match:</text><text x="16.032" y="1.67" class="g">cafe4eccf44d97affcd8c3cb81a8f89f98bee89d</text><text x="57.114" y="1.67" class="g">|</text><text x="59.118" y="1.67" class="g">attempts:</text><text x="69.138" y="1.67" class="g">749</text></symbol><symbol id="11"><text y="1.67" class="g">,097</text><text x="5.01" y="1.67" class="g">|</text><text x="7.014" y="1.67" class="g">speed:</text><text x="14.028" y="1.67" class="g">26.4M</text><text x="20.04" y="1.67" class="g">hash/sec</text></symbol><symbol id="a"><path fill="transparent" d="M0 0h72v13H0z"/></symbol><symbol id="b"><path fill="#6f7683" d="M0 0h1.102v2.171H0z"/></symbol></defs><path class="a" d="M0 0h72v26.052H0z"/><g style="animation-duration:5.023s;animation-iteration-count:infinite;animation-name:j;animation-timing-function:steps(1,end)"><svg width="2016"><svg><use xlink:href="#a"/><use xlink:href="#b" x="-.004"/></svg><svg x="72"><use xlink:href="#a"/><use xlink:href="#b" x="2.996"/><text y="1.67" class="f">$</text><text x="2.004" y="1.67" class="g">g</text></svg><svg x="144"><use xlink:href="#a"/><use xlink:href="#b" x="3.996"/><text y="1.67" class="f">$</text><text x="2.004" y="1.67" class="g">gi</text></svg><svg x="216"><use xlink:href="#a"/><use xlink:href="#b" x="4.996"/><use xlink:href="#1"/></svg><svg x="288"><use xlink:href="#a"/><use xlink:href="#b" x="5.996"/><use xlink:href="#1"/></svg><svg x="360"><use xlink:href="#a"/><use xlink:href="#b" x="6.996"/><text y="1.67" class="f">$</text><text x="2.004" y="1.67" class="g">git</text><text x="6.012" y="1.67" class="g">v</text></svg><svg x="432"><use xlink:href="#a"/><use xlink:href="#b" x="7.996"/><text y="1.67" class="f">$</text><text x="2.004" y="1.67" class="g">git</text><text x="6.012" y="1.67" class="g">va</text></svg><svg x="504"><use xlink:href="#a"/><use xlink:href="#b" x="8.996"/><text y="1.67" class="f">$</text><text x="2.004" y="1.67" class="g">git</text><text x="6.012" y="1.67" class="g">van</text></svg><svg x="576"><use xlink:href="#a"/><use xlink:href="#b" x="9.996"/><text y="1.67" class="f">$</text><text x="2.004" y="1.67" class="g">git</text><text x="6.012" y="1.67" class="g">vani</text></svg><svg x="648"><use xlink:href="#a"/><use xlink:href="#b" x="10.996"/><text y="1.67" class="f">$</text><text x="2.004" y="1.67" class="g">git</text><text x="6.012" y="1.67" class="g">vanit</text></svg><svg x="720"><use xlink:href="#a"/><use xlink:href="#b" x="11.996"/><use xlink:href="#2"/></svg><svg x="792"><use xlink:href="#a"/><use xlink:href="#b" x="12.996"/><use xlink:href="#2"/></svg><svg x="864"><use xlink:href="#a"/><use xlink:href="#b" x="13.996"/><text y="1.67" class="f">$</text><text x="2.004" y="1.67" class="g">git</text><text x="6.012" y="1.67" class="g">vanity</text><text x="13.026" y="1.67" class="g">c</text></svg><svg x="936"><use xlink:href="#a"/><use xlink:href="#b" x="14.996"/><text y="1.67" class="f">$</text><text x="2.004" y="1.67" class="g">git</text><text x="6.012" y="1.67" class="g">vanity</text><text x="13.026" y="1.67" class="g">ca</text></svg><svg x="1008"><use xlink:href="#a"/><use xlink:href="#b" x="15.996"/><text y="1.67" class="f">$</text><text x="2.004" y="1.67" class="g">git</text><text x="6.012" y="1.67" class="g">vanity</text><text x="13.026" y="1.67" class="g">caf</text></svg><svg x="1080"><use xlink:href="#a"/><use xlink:href="#b" x="16.996"/><use xlink:href="#3"/></svg><svg x="1152"><use xlink:href="#a"/><use xlink:href="#b" x="17.996"/><use xlink:href="#3"/></svg><svg x="1224"><use xlink:href="#a"/><use xlink:href="#b" x="18.996"/><text y="1.67" class="f">$</text><text x="2.004" y="1.67" class="g">git</text><text x="6.012" y="1.67" class="g">vanity</text><text x="13.026" y="1.67" class="g">cafe</text><text x="18.036" y="1.67" class="g">-</text></svg><svg x="1296"><use xlink:href="#a"/><use xlink:href="#b" x="19.996"/><use xlink:href="#4"/></svg><svg x="1368"><use xlink:href="#a"/><use xlink:href="#b" x="20.996"/><use xlink:href="#4"/></svg><svg x="1440"><use xlink:href="#a"/><use xlink:href="#b" x="21.996"/><use xlink:href="#5"/></svg><svg x="1512"><use xlink:href="#a"/><use xlink:href="#b" x="22.996"/><use xlink:href="#5"/></svg><svg x="1584"><use xlink:href="#a"/><use xlink:href="#b" x="23.996"/><text y="1.67" class="f">$</text><text x="2.004" y="1.67" class="g">git</text><text x="6.012" y="1.67" class="g">vanity</text><text x="13.026" y="1.67" class="g">cafe</text><text x="18.036" y="1.67" class="g">-j</text><text x="21.042" y="1.67" class="g">2</text><text x="23.046" y="1.67" class="g">-</text></svg><svg x="1656"><use xlink:href="#a"/><use xlink:href="#b" x="24.996"/><use xlink:href="#6"/></svg><svg x="1728"><use xlink:href="#a"/><use xlink:href="#b" x="-.004" y="2.146"/><use xlink:href="#6"/></svg><svg x="1800"><use xlink:href="#a"/><use xlink:href="#b" x="-.004" y="8.659"/><use xlink:href="#6"/><use xlink:href="#7" y="2.171"/><use xlink:href="#8" y="4.342"/><use xlink:href="#9" y="6.513"/></svg><svg x="1872"><use xlink:href="#a"/><use xlink:href="#b" x="-.004" y="13.001"/><use xlink:href="#6"/><use xlink:href="#7" y="2.171"/><use xlink:href="#8" y="4.342"/><use xlink:href="#9" y="6.513"/><use xlink:href="#10" y="8.684"/><use xlink:href="#11" y="10.855"/></svg><svg x="1944"><use xlink:href="#a"/><use xlink:href="#b" x="-.004" y="15.172"/><use xlink:href="#6"/><use xlink:href="#7" y="2.171"/><use xlink:href="#8" y="4.342"/><use xlink:href="#9" y="6.513"/><use xlink:href="#10" y="8.684"/><use xlink:href="#11" y="10.855"/><text y="14.696" class="g">✓</text><text x="2.004" y="14.696" class="g">4063acd0000c</text><text x="15.03" y="14.696" class="g">→</text><text x="17.034" y="14.696" class="f">cafe</text><text x="21.042" y="14.696" class="g">4eccf44d...</text></svg></svg></g></g></svg></svg>