<svg xmlns="http://www.w3.org/2000/svg" xmlns:xlink="http://www.w3.org/1999/xlink" width="776" height="293.1"><rect width="776" height="293.1" rx="5" ry="5" class="a"/><svg y="0%" x="0%"><circle cx="20" cy="20" r="6" fill="#ff5f58"/><circle cx="40" cy="20" r="6" fill="#ffbd2e"/><circle cx="60" cy="20" r="6" fill="#18c132"/></svg><svg height="217.1" viewBox="0 0 72 21.71" width="720" x="23" xmlns="http://www.w3.org/2000/svg" xmlns:xlink="http://www.w3.org/1999/xlink" y="58"><style>@keyframes j{0%{transform:translateX(0)}.5%{transform:translateX(-72px)}.9%{transform:translateX(-2520px)}1%{transform:translateX(-2808px)}1.1%{transform:translateX(-3096px)}7.5%{transform:translateX(-2880px)}1.2%{transform:translateX(-2952px)}2.1%{transform:translateX(-3024px)}}.a{fill:#282d35}.f,.g{white-space:pre}.f{fill:#a8cc8c;font-weight:700}.g{fill:#b9c0cb}</style><g font-family="Monaco,Consolas,Menlo,'Bitstream Vera Sans Mono','Powerline Symbols',monospace" font-size="1.67"><defs><symbol id="1"><text y="1.67" class="f">$</text><text x="2.004" y="1.67" class="g">git</text></symbol><symbol id="2"><text y="1.67" class="f">$</text><text x="2.004" y="1.67" class="g">git</text><text x="6.012" y="1.67" class="g">vanity</text></symbol><symbol id="3"><text y="1.67" class="f">$</text><text x="2.004" y="1.67" class="g">git</text><text x="6.012" y="1.67" class="g">vanity</text><text x="13.026" y="1.67" class="g">00000000</text></symbol><symbol id="4"><text y="1.67" class="f">$</text><text x="2.004" y="1.67" class="g">git</text><text x="6.012" y="1.67" class="g">vanity</text><text x="13.026" y="1.67" class="g">00000000</text><text x="22.044" y="1.67" class="g">--max-attempts</text></symbol><symbol id="5"><text y="1.67" class="f">$</text><text x="2.004" y="1.67" class="g">git</text><text x="6.012" y="1.67" class="g">vanity</text><text x="13.026" y="1.67" class="g">00000000</text><text x="22.044" y="1.67" class="g">--max-attempts</text><text x="37.074" y="1.67" class="g">1000</text></symbol><symbol id="6"><text y="1.67" class="g">Estimated</text><text x="10.02" y="1.67" class="g">time:</text><text x="16.032" y="1.67" class="g">~43s</text></symbol><symbol id="a"><path fill="transparent" d="M0 0h72v11H0z"/></symbol><symbol id="b"><path fill="#6f7683" d="M0 0h1.102v2.171H0z"/></symbol></defs><path class="a" d="M0 0h72v21.71H0z"/><g style="animation-duration:5.026s;animation-iteration-count:infinite;animation-name:j;animation-timing-function:steps(1,end)"><svg width="3168"><svg><use xlink:href="#a"/><use xlink:href="#b" x="-.004"/></svg><svg x="72"><use xlink:href="#a"/><use xlink:href="#b" x="2.996"/><text y="1.67" class="f">$</text><text x="2.004" y="1.67" class="g">g</text></svg><svg x="144"><use xlink:href="#a"/><use xlink:href="#b" x="3.996"/><text y="1.67" class="f">$</text><text x="2.004" y="1.67" class="g">gi</text></svg><svg x="216"><use xlink:href="#a"/><use xlink:href="#b" x="4.996"/><use xlink:href="#1"/></svg><svg x="288"><use xlink:href="#a"/><use xlink:href="#b" x="5.996"/><use xlink:href="#1"/></svg><svg x="360"><use xlink:href="#a"/><use xlink:href="#b" x="6.996"/><text y="1.67" class="f">$</text><text x="2.004" y="1.67" class="g">git</text><text x="6.012" y="1.67" class="g">v</text></svg><svg x="432"><use xlink:href="#a"/><use xlink:href="#b" x="7.996"/><text y="1.67" class="f">$</text><text x="2.004" y="1.67" class="g">git</text><text x="6.012" y="1.67" class="g">va</text></svg><svg x="504"><use xlink:href="#a"/><use xlink:href="#b" x="8.996"/><text y="1.67" class="f">$</text><text x="2.004" y="1.67" class="g">git</text><text x="6.012" y="1.67" class="g">van</text></svg><svg x="576"><use xlink:href="#a"/><use xlink:href="#b" x="9.996"/><text y="1.67" class="f">$</text><text x="2.004" y="1.67" class="g">git</text><text x="6.012" y="1.67" class="g">vani</text></svg><svg x="648"><use xlink:href="#a"/><use xlink:href="#b" x="10.996"/><text y="1.67" class="f">$</text><text x="2.004" y="1.67" class="g">git</text><text x="6.012" y="1.67" class="g">vanit</text></svg><svg x="720"><use xlink:href="#a"/><use xlink:href="#b" x="11.996"/><use xlink:href="#2"/></svg><svg x="792"><use xlink:href="#a"/><use xlink:href="#b" x="12.996"/><use xlink:href="#2"/></svg><svg x="864"><use xlink:href="#a"/><use xlink:href="#b" x="13.996"/><text y="1.67" class="f">$</text><text x="2.004" y="1.67" class="g">git</text><text x="6.012" y="1.67" class="g">vanity</text><text x="13.026" y="1.67" class="g">0</text></svg><svg x="936"><use xlink:href="#a"/><use xlink:href="#b" x="14.996"/><text y="1.67" class="f">$</text><text x="2.004" y="1.67" class="g">git</text><text x="6.012" y="1.67" class="g">vanity</text><text x="13.026" y="1.67" class="g">00</text></svg><svg x="1008"><use xlink:href="#a"/><use xlink:href="#b" x="15.996"/><text y="1.67" class="f">$</text><text x="2.004" y="1.67" class="g">git</text><text x="6.012" y="1.67" class="g">vanity</text><text x="13.026" y="1.67" class="g">000</text></svg><svg x="1080"><use xlink:href="#a"/><use xlink:href="#b" x="16.996"/><text y="1.67" class="f">$</text><text x="2.004" y="1.67" class="g">git</text><text x="6.012" y="1.67" class="g">vanity</text><text x="13.026" y="1.67" class="g">0000</text></svg><svg x="1152"><use xlink:href="#a"/><use xlink:href="#b" x="17.996"/><text y="1.67" class="f">$</text><text x="2.004" y="1.67" class="g">git</text><text x="6.012" y="1.67" class="g">vanity</text><text x="13.026" y="1.67" class="g">00000</text></svg><svg x="1224"><use xlink:href="#a"/><use xlink:href="#b" x="18.996"/><text y="1.67" class="f">$</text><text x="2.004" y="1.67" class="g">git</text><text x="6.012" y="1.67" class="g">vanity</text><text x="13.026" y="1.67" class="g">000000</text></svg><svg x="1296"><use xlink:href="#a"/><use xlink:href="#b" x="19.996"/><text y="1.67" class="f">$</text><text x="2.004" y="1.67" class="g">git</text><text x="6.012" y="1.67" class="g">vanity</text><text x="13.026" y="1.67" class="g">0000000</text></svg><svg x="1368"><use xlink:href="#a"/><use xlink:href="#b" x="20.996"/><use xlink:href="#3"/></svg><svg x="1440"><use xlink:href="#a"/><use xlink:href="#b" x="21.996"/><use xlink:href="#3"/></svg><svg x="1512"><use xlink:href="#a"/><use xlink:href="#b" x="22.996"/><text y="1.67" class="f">$</text><text x="2.004" y="1.67" class="g">git</text><text x="6.012" y="1.67" class="g">vanity</text><text x="13.026" y="1.67" class="g">00000000</text><text x="22.044" y="1.67" class="g">-</text></svg><svg x="1584"><use xlink:href="#a"/><use xlink:href="#b" x="23.996"/><text y="1.67" class="f">$</text><text x="2.004" y="1.67" class="g">git</text><text x="6.012" y="1.67" class="g">vanity</text><text x="13.026" y="1.67" class="g">00000000</text><text x="22.044" y="1.67" class="g">--</text></svg><svg x="1656"><use xlink:href="#a"/><use xlink:href="#b" x="24.996"/><text y="1.67" class="f">$</text><text x="2.004" y="1.67" class="g">git</text><text x="6.012" y="1.67" class="g">vanity</text><text x="13.026" y="1.67" class="g">00000000</text><text x="22.044" y="1.67" class="g">--m</text></svg><svg x="1728"><use xlink:href="#a"/><use xlink:href="#b" x="25.996"/><text y="1.67" class="f">$</text><text x="2.004" y="1.67" class="g">git</text><text x="6.012" y="1.67" class="g">vanity</text><text x="13.026" y="1.67" class="g">00000000</text><text x="22.044" y="1.67" class="g">--ma</text></svg><svg x="1800"><use xlink:href="#a"/><use xlink:href="#b" x="26.996"/><text y="1.67" class="f">$</text><text x="2.004" y="1.67" class="g">git</text><text x="6.012" y="1.67" class="g">vanity</text><text x="13.026" y="1.67" class="g">00000000</text><text x="22.044" y="1.67" class="g">--max</text></svg><svg x="1872"><use xlink:href="#a"/><use xlink:href="#b" x="27.996"/><text y="1.67" class="f">$</text><text x="2.004" y="1.67" class="g">git</text><text x="6.012" y="1.67" class="g">vanity</text><text x="13.026" y="1.67" class="g">00000000</text><text x="22.044" y="1.67" class="g">--max-</text></svg><svg x="1944"><use xlink:href="#a"/><use xlink:href="#b" x="28.996"/><text y="1.67" class="f">$</text><text x="2.004" y="1.67" class="g">git</text><text x="6.012" y="1.67" class="g">vanity</text><text x="13.026" y="1.67" class="g">00000000</text><text x="22.044" y="1.67" class="g">--max-a</text></svg><svg x="2016"><use xlink:href="#a"/><use xlink:href="#b" x="29.996"/><text y="1.67" class="f">$</text><text x="2.004" y="1.67" class="g">git</text><text x="6.012" y="1.67" class="g">vanity</text><text x="13.026" y="1.67" class="g">00000000</text><text x="22.044" y="1.67" class="g">--max-at</text></svg><svg x="2088"><use xlink:href="#a"/><use xlink:href="#b" x="30.996"/><text y="1.67" class="f">$</text><text x="2.004" y="1.67" class="g">git</text><text x="6.012" y="1.67" class="g">vanity</text><text x="13.026" y="1.67" class="g">00000000</text><text x="22.044" y="1.67" class="g">--max-att</text></svg><svg x="2160"><use xlink:href="#a"/><use xlink:href="#b" x="31.996"/><text y="1.67" class="f">$</text><text x="2.004" y="1.67" class="g">git</text><text x="6.012" y="1.67" class="g">vanity</text><text x="13.026" y="1.67" class="g">00000000</text><text x="22.044" y="1.67" class="g">--max-atte</text></svg><svg x="2232"><use xlink:href="#a"/><use xlink:href="#b" x="32.996"/><text y="1.67" class="f">$</text><text x="2.004" y="1.67" class="g">git</text><text x="6.012" y="1.67" class="g">vanity</text><text x="13.026" y="1.67" class="g">00000000</text><text x="22.044" y="1.67" class="g">--max-attem</text></svg><svg x="2304"><use xlink:href="#a"/><use xlink:href="#b" x="33.996"/><text y="1.67" class="f">$</text><text x="2.004" y="1.67" class="g">git</text><text x="6.012" y="1.67" class="g">vanity</text><text x="13.026" y="1.67" class="g">00000000</text><text x="22.044" y="1.67" class="g">--max-attemp</text></svg><svg x="2376"><use xlink:href="#a"/><use xlink:href="#b" x="34.996"/><text y="1.67" class="f">$</text><text x="2.004" y="1.67" class="g">git</text><text x="6.012" y="1.67" class="g">vanity</text><text x="13.026" y="1.67" class="g">00000000</text><text x="22.044" y="1.67" class="g">--max-attempt</text></svg><svg x="2448"><use xlink:href="#a"/><use xlink:href="#b" x="35.996"/><use xlink:href="#4"/></svg><svg x="2520"><use xlink:href="#a"/><use xlink:href="#b" x="36.996"/><use xlink:href="#4"/></svg><svg x="2592"><use xlink:href="#a"/><use xlink:href="#b" x="37.996"/><text y="1.67" class="f">$</text><text x="2.004" y="1.67" class="g">git</text><text x="6.012" y="1.67" class="g">vanity</text><text x="13.026" y="1.67" class="g">00000000</text><text x="22.044" y="1.67" class="g">--max-attempts</text><text x="37.074" y="1.67" class="g">1</text></svg><svg x="2664"><use xlink:href="#a"/><use xlink:href="#b" x="38.996"/><text y="1.67" class="f">$</text><text x="2.004" y="1.67" class="g">git</text><text x="6.012" y="1.67" class="g">vanity</text><text x="13.026" y="1.67" class="g">00000000</text><text x="22.044" y="1.67" class="g">--max-attempts</text><text x="37.074" y="1.67" class="g">10</text></svg><svg x="2736"><use xlink:href="#a"/><use xlink:href="#b" x="39.996"/><text y="1.67" class="f">$</text><text x="2.004" y="1.67" class="g">git</text><text x="6.012" y="1.67" class="g">vanity</text><text x="13.026" y="1.67" class="g">00000000</text><text x="22.044" y="1.67" class="g">--max-attempts</text><text x="37.074" y="1.67" class="g">100</text></svg><svg x="2808"><use xlink:href="#a"/><use xlink:href="#b" x="40.996"/><use xlink:href="#5"/></svg><svg x="2880"><use xlink:href="#a"/><use xlink:href="#b" x="-.004" y="2.146"/><use xlink:href="#5"/></svg><svg x="2952"><use xlink:href="#a"/><use xlink:href="#b" x="-.004" y="4.317"/><use xlink:href="#5"/><use xlink:href="#6" y="2.171"/></svg><svg x="3024"><use xlink:href="#a"/><use xlink:href="#b" x="-.004" y="4.317"/><use xlink:href="#5"/><use xlink:href="#6" y="2.171"/></svg><svg x="3096"><use xlink:href="#a"/><use xlink:href="#b" x="-.004" y="8.659"/><use xlink:href="#5"/><use xlink:href="#6" y="2.171"/><text y="6.012" class="g">Error:</text><text x="7.014" y="6.012" class="g">No</text><text x="10.02" y="6.012" class="g">match</text><text x="16.032" y="6.012" class="g">found</text><text x="22.044" y="6.012" class="g">after</text><text x="28.056" y="6.012" class="g">524288</text><text x="35.07" y="6.012" class="g">attempts</text><text x="44.088" y="6.012" class="g">(timeout</text><text x="53.106" y="6.012" class="g">or</text><text x="56.112" y="6.012" class="g">max-attempts</text><text x="69.138" y="6.012" class="g">rea</text><text y="8.183" class="g">ched)</text></svg></svg></g></g></svg></svg>