<svg xmlns="http://www.w3.org/2000/svg" xmlns:xlink="http://www.w3.org/1999/xlink" width="776" height="293.1"><rect width="776" height="293.1" rx="5" ry="5" class="a"/><svg y="0%" x="0%"><circle cx="20" cy="20" r="6" fill="#ff5f58"/><circle cx="40" cy="20" r="6" fill="#ffbd2e"/><circle cx="60" cy="20" r="6" fill="#18c132"/></svg><svg height="217.1" viewBox="0 0 72 21.71" width="720" x="23" xmlns="http://www.w3.org/2000/svg" xmlns:xlink="http://www.w3.org/1999/xlink" y="58"><style>@keyframes l{0%{transform:translateX(-1944px)}.5%{transform:translateX(-144px)}20%{transform:translateX(-216px)}1%{transform:translateX(-1584px)}.9%{transform:translateX(-1656px)}1.1%{transform:translateX(-720px)}7.1%{transform:translateX(-1728px)}1.2%{transform:translateX(-1800px)}20.4%{transform:translateX(-1872px)}}.a{fill:#282d35}.f,.g,.h{white-space:pre}.f{fill:#a8cc8c;font-weight:700}.g,.h{fill:#b9c0cb}.h{fill:#dbab79}</style><g font-family="Monaco,Consolas,Menlo,'Bitstream Vera Sans Mono','Powerline Symbols',monospace" font-size="1.67"><defs><symbol id="1"><text y="1.67" class="f">$</text><text x="2.004" y="1.67" class="g">git</text><text x="6.012" y="1.67" class="g">vanity</text><text x="13.026" y="1.67" class="g">cafe</text><text x="18.036" y="1.67" class="g">--message</text><text x="28.056" y="1.67" class="g">&quot;new</text><text x="33.066" y="1.67" class="g">message&quot;</text></symbol><symbol id="2"><text y="1.67" class="g">✓</text><text x="2.004" y="1.67" class="g">4b81d0c916da</text><text x="15.03" y="1.67" class="g">→</text><text x="17.034" y="1.67" class="f">cafe</text><text x="21.042" y="1.67" class="g">46dc256e...</text></symbol><symbol id="3"><text y="1.67" class="f">$</text><text x="2.004" y="1.67" class="g">git</text></symbol><symbol id="4"><text y="1.67" class="f">$</text><text x="2.004" y="1.67" class="g">git</text><text x="6.012" y="1.67" class="g">log</text></symbol><symbol id="5"><text y="1.67" class="f">$</text><text x="2.004" y="1.67" class="g">git</text><text x="6.012" y="1.67" class="g">log</text><text x="10.02" y="1.67" class="g">--oneline</text></symbol><symbol id="6"><text y="1.67" class="f">$</text><text x="2.004" y="1.67" class="g">git</text><text x="6.012" y="1.67" class="g">log</text><text x="10.02" y="1.67" class="g">--oneline</text><text x="20.04" y="1.67" class="g">-1</text></symbol><symbol id="7"><text y="1.67" class="h">cafe46d</text><text x="8.016" y="1.67" class="h">(</text><text x="9.018" y="1.67" style="white-space:pre" fill="#66c2cd" font-weight="700">HEAD</text><text x="14.028" y="1.67" class="h">-&gt;</text><text x="17.034" y="1.67" class="f">main</text><text x="21.042" y="1.67" class="h">)</text><text x="23.046" y="1.67" class="g">new</text><text x="27.054" y="1.67" class="g">message</text></symbol><symbol id="a"><path fill="transparent" d="M0 0h72v11H0z"/></symbol><symbol id="b"><path fill="#6f7683" d="M0 0h1.102v2.171H0z"/></symbol></defs><path class="a" d="M0 0h72v21.71H0z"/><g style="animation-duration:5.025s;animation-iteration-count:infinite;animation-name:l;animation-timing-function:steps(1,end)"><svg width="2016"><svg><use xlink:href="#a"/><use xlink:href="#b" x="-.004"/></svg><svg x="72"><use xlink:href="#a"/><use xlink:href="#b" x="-.004" y="2.146"/><use xlink:href="#1"/></svg><svg x="144"><use xlink:href="#a"/><use xlink:href="#b" x="-.004" y="4.317"/><use xlink:href="#1"/><use xlink:href="#2" y="2.171"/></svg><svg x="216"><use xlink:href="#a"/><use xlink:href="#b" x="1.996" y="4.317"/><use xlink:href="#1"/><use xlink:href="#2" y="2.171"/><text y="6.012" class="f">$</text></svg><svg x="288"><use xlink:href="#a"/><use xlink:href="#b" x="2.996" y="4.317"/><use xlink:href="#1"/><use xlink:href="#2" y="2.171"/><text y="6.012" class="f">$</text><text x="2.004" y="6.012" class="g">g</text></svg><svg x="360"><use xlink:href="#a"/><use xlink:href="#b" x="3.996" y="4.317"/><use xlink:href="#1"/><use xlink:href="#2" y="2.171"/><text y="6.012" class="f">$</text><text x="2.004" y="6.012" class="g">gi</text></svg><svg x="432"><use xlink:href="#a"/><use xlink:href="#b" x="4.996" y="4.317"/><use xlink:href="#1"/><use xlink:href="#2" y="2.171"/><use xlink:href="#3" y="4.342"/></svg><svg x="504"><use xlink:href="#a"/><use xlink:href="#b" x="5.996" y="4.317"/><use xlink:href="#1"/><use xlink:href="#2" y="2.171"/><use xlink:href="#3" y="4.342"/></svg><svg x="576"><use xlink:href="#a"/><use xlink:href="#b" x="6.996" y="4.317"/><use xlink:href="#1"/><use xlink:href="#2" y="2.171"/><text y="6.012" class="f">$</text><text x="2.004" y="6.012" class="g">git</text><text x="6.012" y="6.012" class="g">l</text></svg><svg x="648"><use xlink:href="#a"/><use xlink:href="#b" x="7.996" y="4.317"/><use xlink:href="#1"/><use xlink:href="#2" y="2.171"/><text y="6.012" class="f">$</text><text x="2.004" y="6.012" class="g">git</text><text x="6.012" y="6.012" class="g">lo</text></svg><svg x="720"><use xlink:href="#a"/><use xlink:href="#b" x="8.996" y="4.317"/><use xlink:href="#1"/><use xlink:href="#2" y="2.171"/><use xlink:href="#4" y="4.342"/></svg><svg x="792"><use xlink:href="#a"/><use xlink:href="#b" x="9.996" y="4.317"/><use xlink:href="#1"/><use xlink:href="#2" y="2.171"/><use xlink:href="#4" y="4.342"/></svg><svg x="864"><use xlink:href="#a"/><use xlink:href="#b" x="10.996" y="4.317"/><use xlink:href="#1"/><use xlink:href="#2" y="2.171"/><text y="6.012" class="f">$</text><text x="2.004" y="6.012" class="g">git</text><text x="6.012" y="6.012" class="g">log</text><text x="10.02" y="6.012" class="g">-</text></svg><svg x="936"><use xlink:href="#a"/><use xlink:href="#b" x="11.996" y="4.317"/><use xlink:href="#1"/><use xlink:href="#2" y="2.171"/><text y="6.012" class="f">$</text><text x="2.004" y="6.012" class="g">git</text><text x="6.012" y="6.012" class="g">log</text><text x="10.02" y="6.012" class="g">--</text></svg><svg x="1008"><use xlink:href="#a"/><use xlink:href="#b" x="12.996" y="4.317"/><use xlink:href="#1"/><use xlink:href="#2" y="2.171"/><text y="6.012" class="f">$</text><text x="2.004" y="6.012" class="g">git</text><text x="6.012" y="6.012" class="g">log</text><text x="10.02" y="6.012" class="g">--o</text></svg><svg x="1080"><use xlink:href="#a"/><use xlink:href="#b" x="13.996" y="4.317"/><use xlink:href="#1"/><use xlink:href="#2" y="2.171"/><text y="6.012" class="f">$</text><text x="2.004" y="6.012" class="g">git</text><text x="6.012" y="6.012" class="g">log</text><text x="10.02" y="6.012" class="g">--on</text></svg><svg x="1152"><use xlink:href="#a"/><use xlink:href="#b" x="14.996" y="4.317"/><use xlink:href="#1"/><use xlink:href="#2" y="2.171"/><text y="6.012" class="f">$</text><text x="2.004" y="6.012" class="g">git</text><text x="6.012" y="6.012" class="g">log</text><text x="10.02" y="6.012" class="g">--one</text></svg><svg x="1224"><use xlink:href="#a"/><use xlink:href="#b" x="15.996" y="4.317"/><use xlink:href="#1"/><use xlink:href="#2" y="2.171"/><text y="6.012" class="f">$</text><text x="2.004" y="6.012" class="g">git</text><text x="6.012" y="6.012" class="g">log</text><text x="10.02" y="6.012" class="g">--onel</text></svg><svg x="1296"><use xlink:href="#a"/><use xlink:href="#b" x="16.996" y="4.317"/><use xlink:href="#1"/><use xlink:href="#2" y="2.171"/><text y="6.012" class="f">$</text><text x="2.004" y="6.012" class="g">git</text><text x="6.012" y="6.012" class="g">log</text><text x="10.02" y="6.012" class="g">--oneli</text></svg><svg x="1368"><use xlink:href="#a"/><use xlink:href="#b" x="17.996" y="4.317"/><use xlink:href="#1"/><use xlink:href="#2" y="2.171"/><text y="6.012" class="f">$</text><text x="2.004" y="6.012" class="g">git</text><text x="6.012" y="6.012" class="g">log</text><text x="10.02" y="6.012" class="g">--onelin</text></svg><svg x="1440"><use xlink:href="#a"/><use xlink:href="#b" x="18.996" y="4.317"/><use xlink:href="#1"/><use xlink:href="#2" y="2.171"/><use xlink:href="#5" y="4.342"/></svg><svg x="1512"><use xlink:href="#a"/><use xlink:href="#b" x="19.996" y="4.317"/><use xlink:href="#1"/><use xlink:href="#2" y="2.171"/><use xlink:href="#5" y="4.342"/></svg><svg x="1584"><use xlink:href="#a"/><use xlink:href="#b" x="20.996" y="4.317"/><use xlink:href="#1"/><use xlink:href="#2" y="2.171"/><text y="6.012" class="f">$</text><text x="2.004" y="6.012" class="g">git</text><text x="6.012" y="6.012" class="g">log</text><text x="10.02" y="6.012" class="g">--oneline</text><text x="20.04" y="6.012" class="g">-</text></svg><svg x="1656"><use xlink:href="#a"/><use xlink:href="#b" x="21.996" y="4.317"/><use xlink:href="#1"/><use xlink:href="#2" y="2.171"/><use xlink:href="#6" y="4.342"/></svg><svg x="1728"><use xlink:href="#a"/><use xlink:href="#b" x="-.004" y="6.488"/><use xlink:href="#1"/><use xlink:href="#2" y="2.171"/><use xlink:href="#6" y="4.342"/></svg><svg x="1800"><use xlink:href="#a"/><use xlink:href="#b" x="-.004" y="6.488"/><use xlink:href="#1"/><use xlink:href="#2" y="2.171"/><use xlink:href="#6" y="4.342"/></svg><svg x="1872"><use xlink:href="#a"/><use xlink:href="#b" x="-.004" y="8.659"/><use xlink:href="#1"/><use xlink:href="#2" y="2.171"/><use xlink:href="#6" y="4.342"/><use xlink:href="#7" y="6.513"/></svg><svg x="1944"><use xlink:href="#a"/><use xlink:href="#b" x="-.004" y="8.659"/><use xlink:href="#1"/><use xlink:href="#2" y="2.171"/><use xlink:href="#6" y="4.342"/><use xlink:href="#7" y="6.513"/></svg></svg></g></g></svg></svg>