<svg xmlns="http://www.w3.org/2000/svg" xmlns:xlink="http://www.w3.org/1999/xlink" width="776" height="814.14"><rect width="776" height="814.14" rx="5" ry="5" class="a"/><svg y="0%" x="0%"><circle cx="20" cy="20" r="6" fill="#ff5f58"/><circle cx="40" cy="20" r="6" fill="#ffbd2e"/><circle cx="60" cy="20" r="6" fill="#18c132"/></svg><svg height="738.14" viewBox="0 0 72 73.814" width="720" x="23" xmlns="http://www.w3.org/2000/svg" xmlns:xlink="http://www.w3.org/1999/xlink" y="58"><style>@keyframes j{0%{transform:translateX(-2088px)}.1%{transform:translateX(-72px)}.9%{transform:translateX(-1872px)}.8%{transform:translateX(-288px)}1%{transform:translateX(-1800px)}1.1%{transform:translateX(-720px)}1.2%{transform:translateX(-1152px)}7.2%{transform:translateX(-1944px)}.5%{transform:translateX(-2016px)}}.a{fill:#282d35}.f,.g{white-space:pre}.f{fill:#a8cc8c;font-weight:700}.g{fill:#b9c0cb}</style><g font-family="Monaco,Consolas,Menlo,'Bitstream Vera Sans Mono','Powerline Symbols',monospace" font-size="1.67"><defs><symbol id="1"><text y="1.67" class="f">$</text><text x="2.004" y="1.67" class="g">git</text></symbol><symbol id="2"><text y="1.67" class="f">$</text><text x="2.004" y="1.67" class="g">git</text><text x="6.012" y="1.67" class="g">vanity</text></symbol><symbol id="3"><text y="1.67" class="f">$</text><text x="2.004" y="1.67" class="g">git</text><text x="6.012" y="1.67" class="g">vanity</text><text x="13.026" y="1.67" class="g">--list-presets</text></symbol><symbol id="4"><text y="1.67" class="g">Available</text><text x="10.02" y="1.67" class="g">presets:</text></symbol><symbol id="5"><text x="2.004" y="1.67" class="g">ace</text><text x="11.022" y="1.67" class="g">ace</text><text x="21.042" y="1.67" class="g">instant</text><text x="30.06" y="1.67" class="g">an</text><text x="33.066" y="1.67" class="g">ace</text><text x="37.074" y="1.67" class="g">up</text><text x="40.08" y="1.67" class="g">your</text><text x="45.09" y="1.67" class="g">sleeve</text></symbol><symbol id="6"><text x="2.004" y="1.67" class="g">add</text><text x="11.022" y="1.67" class="g">add</text><text x="21.042" y="1.67" class="g">instant</text><text x="30.06" y="1.67" class="g">add</text><text x="34.068" y="1.67" class="g">something</text><text x="44.088" y="1.67" class="g">new</text></symbol><symbol id="7"><text x="2.004" y="1.67" class="g">bad</text><text x="11.022" y="1.67" class="g">bad</text><text x="21.042" y="1.67" class="g">instant</text><text x="30.06" y="1.67" class="g">bad</text><text x="34.068" y="1.67" class="g">to</text><text x="37.074" y="1.67" class="g">the</text><text x="41.082" y="1.67" class="g">bone</text></symbol><symbol id="8"><text x="2.004" y="1.67" class="g">bed</text><text x="11.022" y="1.67" class="g">bed</text><text x="21.042" y="1.67" class="g">instant</text><text x="30.06" y="1.67" class="g">time</text><text x="35.07" y="1.67" class="g">for</text><text x="39.078" y="1.67" class="g">bed</text></symbol><symbol id="9"><text x="2.004" y="1.67" class="g">cab</text><text x="11.022" y="1.67" class="g">cab</text><text x="21.042" y="1.67" class="g">instant</text><text x="30.06" y="1.67" class="g">hail</text><text x="35.07" y="1.67" class="g">a</text><text x="37.074" y="1.67" class="g">cab</text></symbol><symbol id="10"><text x="2.004" y="1.67" class="g">dad</text><text x="11.022" y="1.67" class="g">dad</text><text x="21.042" y="1.67" class="g">instant</text><text x="30.06" y="1.67" class="g">hi</text><text x="33.066" y="1.67" class="g">dad</text></symbol><symbol id="11"><text x="2.004" y="1.67" class="g">fab</text><text x="11.022" y="1.67" class="g">fab</text><text x="21.042" y="1.67" class="g">instant</text><text x="30.06" y="1.67" class="g">fabulous</text></symbol><symbol id="12"><text x="2.004" y="1.67" class="g">fed</text><text x="11.022" y="1.67" class="g">fed</text><text x="21.042" y="1.67" class="g">instant</text><text x="30.06" y="1.67" class="g">well</text><text x="35.07" y="1.67" class="g">fed</text></symbol><symbol id="13"><text x="2.004" y="1.67" class="g">babe</text><text x="11.022" y="1.67" class="g">babe</text><text x="24.048" y="1.67" class="g">&lt;</text><text x="26.052" y="1.67" class="g">1s</text><text x="30.06" y="1.67" class="g">hey</text><text x="34.068" y="1.67" class="g">babe</text></symbol><symbol id="14"><text x="2.004" y="1.67" class="g">bead</text><text x="11.022" y="1.67" class="g">bead</text><text x="24.048" y="1.67" class="g">&lt;</text><text x="26.052" y="1.67" class="g">1s</text><text x="30.06" y="1.67" class="g">string</text><text x="37.074" y="1.67" class="g">of</text><text x="40.08" y="1.67" class="g">beads</text></symbol><symbol id="15"><text x="2.004" y="1.67" class="g">beef</text><text x="11.022" y="1.67" class="g">beef</text><text x="24.048" y="1.67" class="g">&lt;</text><text x="26.052" y="1.67" class="g">1s</text><text x="30.06" y="1.67" class="g">where&apos;s</text><text x="38.076" y="1.67" class="g">the</text><text x="42.084" y="1.67" class="g">beef?</text></symbol><symbol id="16"><text x="2.004" y="1.67" class="g">cafe</text><text x="11.022" y="1.67" class="g">cafe</text><text x="24.048" y="1.67" class="g">&lt;</text><text x="26.052" y="1.67" class="g">1s</text><text x="30.06" y="1.67" class="g">coffee</text><text x="37.074" y="1.67" class="g">shop</text><text x="42.084" y="1.67" class="g">vibes</text></symbol><symbol id="17"><text x="2.004" y="1.67" class="g">code</text><text x="11.022" y="1.67" class="g">c0de</text><text x="24.048" y="1.67" class="g">&lt;</text><text x="26.052" y="1.67" class="g">1s</text><text x="30.06" y="1.67" class="g">write</text><text x="36.072" y="1.67" class="g">some</text><text x="41.082" y="1.67" class="g">c0de</text></symbol><symbol id="18"><text x="2.004" y="1.67" class="g">daze</text><text x="11.022" y="1.67" class="g">da2e</text><text x="24.048" y="1.67" class="g">&lt;</text><text x="26.052" y="1.67" class="g">1s</text><text x="30.06" y="1.67" class="g">in</text><text x="33.066" y="1.67" class="g">a</text><text x="35.07" y="1.67" class="g">da2e</text></symbol><symbol id="19"><text x="2.004" y="1.67" class="g">dead</text><text x="11.022" y="1.67" class="g">dead</text><text x="24.048" y="1.67" class="g">&lt;</text><text x="26.052" y="1.67" class="g">1s</text><text x="30.06" y="1.67" class="g">dead</text><text x="35.07" y="1.67" class="g">commit</text><text x="42.084" y="1.67" class="g">walking</text></symbol><symbol id="20"><text x="2.004" y="1.67" class="g">deaf</text><text x="11.022" y="1.67" class="g">deaf</text><text x="24.048" y="1.67" class="g">&lt;</text><text x="26.052" y="1.67" class="g">1s</text><text x="30.06" y="1.67" class="g">deaf</text><text x="35.07" y="1.67" class="g">to</text><text x="38.076" y="1.67" class="g">criticism</text></symbol><symbol id="21"><text x="2.004" y="1.67" class="g">face</text><text x="11.022" y="1.67" class="g">face</text><text x="24.048" y="1.67" class="g">&lt;</text><text x="26.052" y="1.67" class="g">1s</text><text x="30.06" y="1.67" class="g">save</text><text x="35.07" y="1.67" class="g">face</text></symbol><symbol id="22"><text x="2.004" y="1.67" class="g">fade</text><text x="11.022" y="1.67" class="g">fade</text><text x="24.048" y="1.67" class="g">&lt;</text><text x="26.052" y="1.67" class="g">1s</text><text x="30.06" y="1.67" class="g">fade</text><text x="35.07" y="1.67" class="g">to</text><text x="38.076" y="1.67" class="g">black</text></symbol><symbol id="23"><text x="2.004" y="1.67" class="g">feed</text><text x="11.022" y="1.67" class="g">feed</text><text x="24.048" y="1.67" class="g">&lt;</text><text x="26.052" y="1.67" class="g">1s</text><text x="30.06" y="1.67" class="g">feed</text><text x="35.07" y="1.67" class="g">the</text><text x="39.078" y="1.67" class="g">code</text></symbol><symbol id="24"><text x="2.004" y="1.67" class="g">food</text><text x="11.022" y="1.67" class="g">f00d</text><text x="24.048" y="1.67" class="g">&lt;</text><text x="26.052" y="1.67" class="g">1s</text><text x="30.06" y="1.67" class="g">f00d</text><text x="35.07" y="1.67" class="g">for</text><text x="39.078" y="1.67" class="g">thought</text></symbol><symbol id="25"><text x="2.004" y="1.67" class="g">decaf</text><text x="11.022" y="1.67" class="g">decaf</text><text x="24.048" y="1.67" class="g">~</text><text x="26.052" y="1.67" class="g">2s</text><text x="30.06" y="1.67" class="g">decaf</text><text x="36.072" y="1.67" class="g">coffee</text></symbol><symbol id="26"><text x="2.004" y="1.67" class="g">coffee</text><text x="11.022" y="1.67" class="g">c0ffee</text><text x="24.048" y="1.67" class="g">~</text><text x="26.052" y="1.67" class="g">5s</text><text x="30.06" y="1.67" class="g">powered</text><text x="38.076" y="1.67" class="g">by</text><text x="41.082" y="1.67" class="g">c0ffee</text></symbol><symbol id="a"><path fill="transparent" d="M0 0h72v35H0z"/></symbol><symbol id="b"><path fill="#6f7683" d="M0 0h1.102v2.171H0z"/></symbol></defs><path class="a" d="M0 0h72v73.814H0z"/><g style="animation-duration:5.01s;animation-iteration-count:infinite;animation-name:j;animation-timing-function:steps(1,end)"><svg width="2160"><svg><use xlink:href="#a"/><use xlink:href="#b" x="-.004"/></svg><svg x="72"><use xlink:href="#a"/><use xlink:href="#b" x="1.996"/><text y="1.67" class="f">$</text></svg><svg x="144"><use xlink:href="#a"/><use xlink:href="#b" x="2.996"/><text y="1.67" class="f">$</text><text x="2.004" y="1.67" class="g">g</text></svg><svg x="216"><use xlink:href="#a"/><use xlink:href="#b" x="3.996"/><text y="1.67" class="f">$</text><text x="2.004" y="1.67" class="g">gi</text></svg><svg x="288"><use xlink:href="#a"/><use xlink:href="#b" x="4.996"/><use xlink:href="#1"/></svg><svg x="360"><use xlink:href="#a"/><use xlink:href="#b" x="5.996"/><use xlink:href="#1"/></svg><svg x="432"><use xlink:href="#a"/><use xlink:href="#b" x="6.996"/><text y="1.67" class="f">$</text><text x="2.004" y="1.67" class="g">git</text><text x="6.012" y="1.67" class="g">v</text></svg><svg x="504"><use xlink:href="#a"/><use xlink:href="#b" x="7.996"/><text y="1.67" class="f">$</text><text x="2.004" y="1.67" class="g">git</text><text x="6.012" y="1.67" class="g">va</text></svg><svg x="576"><use xlink:href="#a"/><use xlink:href="#b" x="8.996"/><text y="1.67" class="f">$</text><text x="2.004" y="1.67" class="g">git</text><text x="6.012" y="1.67" class="g">van</text></svg><svg x="648"><use xlink:href="#a"/><use xlink:href="#b" x="9.996"/><text y="1.67" class="f">$</text><text x="2.004" y="1.67" class="g">git</text><text x="6.012" y="1.67" class="g">vani</text></svg><svg x="720"><use xlink:href="#a"/><use xlink:href="#b" x="10.996"/><text y="1.67" class="f">$</text><text x="2.004" y="1.67" class="g">git</text><text x="6.012" y="1.67" class="g">vanit</text></svg><svg x="792"><use xlink:href="#a"/><use xlink:href="#b" x="11.996"/><use xlink:href="#2"/></svg><svg x="864"><use xlink:href="#a"/><use xlink:href="#b" x="12.996"/><use xlink:href="#2"/></svg><svg x="936"><use xlink:href="#a"/><use xlink:href="#b" x="13.996"/><text y="1.67" class="f">$</text><text x="2.004" y="1.67" class="g">git</text><text x="6.012" y="1.67" class="g">vanity</text><text x="13.026" y="1.67" class="g">-</text></svg><svg x="1008"><use xlink:href="#a"/><use xlink:href="#b" x="14.996"/><text y="1.67" class="f">$</text><text x="2.004" y="1.67" class="g">git</text><text x="6.012" y="1.67" class="g">vanity</text><text x="13.026" y="1.67" class="g">--</text></svg><svg x="1080"><use xlink:href="#a"/><use xlink:href="#b" x="15.996"/><text y="1.67" class="f">$</text><text x="2.004" y="1.67" class="g">git</text><text x="6.012" y="1.67" class="g">vanity</text><text x="13.026" y="1.67" class="g">--l</text></svg><svg x="1152"><use xlink:href="#a"/><use xlink:href="#b" x="16.996"/><text y="1.67" class="f">$</text><text x="2.004" y="1.67" class="g">git</text><text x="6.012" y="1.67" class="g">vanity</text><text x="13.026" y="1.67" class="g">--li</text></svg><svg x="1224"><use xlink:href="#a"/><use xlink:href="#b" x="17.996"/><text y="1.67" class="f">$</text><text x="2.004" y="1.67" class="g">git</text><text x="6.012" y="1.67" class="g">vanity</text><text x="13.026" y="1.67" class="g">--lis</text></svg><svg x="1296"><use xlink:href="#a"/><use xlink:href="#b" x="18.996"/><text y="1.67" class="f">$</text><text x="2.004" y="1.67" class="g">git</text><text x="6.012" y="1.67" class="g">vanity</text><text x="13.026" y="1.67" class="g">--list</text></svg><svg x="1368"><use xlink:href="#a"/><use xlink:href="#b" x="19.996"/><text y="1.67" class="f">$</text><text x="2.004" y="1.67" class="g">git</text><text x="6.012" y="1.67" class="g">vanity</text><text x="13.026" y="1.67" class="g">--list-</text></svg><svg x="1440"><use xlink:href="#a"/><use xlink:href="#b" x="20.996"/><text y="1.67" class="f">$</text><text x="2.004" y="1.67" class="g">git</text><text x="6.012" y="1.67" class="g">vanity</text><text x="13.026" y="1.67" class="g">--list-p</text></svg><svg x="1512"><use xlink:href="#a"/><use xlink:href="#b" x="21.996"/><text y="1.67" class="f">$</text><text x="2.004" y="1.67" class="g">git</text><text x="6.012" y="1.67" class="g">vanity</text><text x="13.026" y="1.67" class="g">--list-pr</text></svg><svg x="1584"><use xlink:href="#a"/><use xlink:href="#b" x="22.996"/><text y="1.67" class="f">$</text><text x="2.004" y="1.67" class="g">git</text><text x="6.012" y="1.67" class="g">vanity</text><text x="13.026" y="1.67" class="g">--list-pre</text></svg><svg x="1656"><use xlink:href="#a"/><use xlink:href="#b" x="23.996"/><text y="1.67" class="f">$</text><text x="2.004" y="1.67" class="g">git</text><text x="6.012" y="1.67" class="g">vanity</text><text x="13.026" y="1.67" class="g">--list-pres</text></svg><svg x="1728"><use xlink:href="#a"/><use xlink:href="#b" x="24.996"/><text y="1.67" class="f">$</text><text x="2.004" y="1.67" class="g">git</text><text x="6.012" y="1.67" class="g">vanity</text><text x="13.026" y="1.67" class="g">--list-prese</text></svg><svg x="1800"><use xlink:href="#a"/><use xlink:href="#b" x="25.996"/><text y="1.67" class="f">$</text><text x="2.004" y="1.67" class="g">git</text><text x="6.012" y="1.67" class="g">vanity</text><text x="13.026" y="1.67" class="g">--list-preset</text></svg><svg x="1872"><use xlink:href="#a"/><use xlink:href="#b" x="26.996"/><use xlink:href="#3"/></svg><svg x="1944"><use xlink:href="#a"/><use xlink:href="#b" x="-.004" y="2.146"/><use xlink:href="#3"/></svg><svg x="2016"><use xlink:href="#a"/><use xlink:href="#b" x="3.996" y="54.25"/><use xlink:href="#3"/><use xlink:href="#4" y="2.171"/><use xlink:href="#5" y="6.513"/><use xlink:href="#6" y="8.684"/><use xlink:href="#7" y="10.855"/><use xlink:href="#8" y="13.026"/><use xlink:href="#9" y="15.197"/><use xlink:href="#10" y="17.368"/><use xlink:href="#11" y="19.539"/><use xlink:href="#12" y="21.71"/><use xlink:href="#13" y="23.881"/><use xlink:href="#14" y="26.052"/><use xlink:href="#15" y="28.223"/><use xlink:href="#16" y="30.394"/><use xlink:href="#17" y="32.565"/><use xlink:href="#18" y="34.736"/><use xlink:href="#19" y="36.907"/><use xlink:href="#20" y="39.078"/><use xlink:href="#21" y="41.249"/><use xlink:href="#22" y="43.42"/><use xlink:href="#23" y="45.591"/><use xlink:href="#24" y="47.762"/><use xlink:href="#25" y="49.933"/><use xlink:href="#26" y="52.104"/><text x="2.004" y="55.945" class="g">de</text></svg><svg x="2088"><use xlink:href="#a"/><use xlink:href="#b" x="-.004" y="69.447"/><use xlink:href="#3"/><use xlink:href="#4" y="2.171"/><use xlink:href="#5" y="6.513"/><use xlink:href="#6" y="8.684"/><use xlink:href="#7" y="10.855"/><use xlink:href="#8" y="13.026"/><use xlink:href="#9" y="15.197"/><use xlink:href="#10" y="17.368"/><use xlink:href="#11" y="19.539"/><use xlink:href="#12" y="21.71"/><use xlink:href="#13" y="23.881"/><use xlink:href="#14" y="26.052"/><use xlink:href="#15" y="28.223"/><use xlink:href="#16" y="30.394"/><use xlink:href="#17" y="32.565"/><use xlink:href="#18" y="34.736"/><use xlink:href="#19" y="36.907"/><use xlink:href="#20" y="39.078"/><use xlink:href="#21" y="41.249"/><use xlink:href="#22" y="43.42"/><use xlink:href="#23" y="45.591"/><use xlink:href="#24" y="47.762"/><use xlink:href="#25" y="49.933"/><use xlink:href="#26" y="52.104"/><text x="2.004" y="55.945" class="g">decade</text><text x="11.022" y="55.945" class="g">decade</text><text x="24.048" y="55.945" class="g">~</text><text x="26.052" y="55.945" class="g">5s</text><text x="30.06" y="55.945" class="g">a</text><text x="32.064" y="55.945" class="g">decade</text><text x="39.078" y="55.945" class="g">of</text><text x="42.084" y="55.945" class="g">commits</text><text x="2.004" y="58.116" class="g">deface</text><text x="11.022" y="58.116" class="g">deface</text><text x="24.048" y="58.116" class="g">~</text><text x="26.052" y="58.116" class="g">5s</text><text x="30.06" y="58.116" class="g">deface</text><text x="37.074" y="58.116" class="g">the</text><text x="41.082" y="58.116" class="g">hash</text><text x="2.004" y="60.287" class="g">facade</text><text x="11.022" y="60.287" class="g">facade</text><text x="24.048" y="60.287" class="g">~</text><text x="26.052" y="60.287" class="g">5s</text><text x="30.06" y="60.287" class="g">behind</text><text x="37.074" y="60.287" class="g">the</text><text x="41.082" y="60.287" class="g">facade</text><text x="2.004" y="62.458" class="g">defaced</text><text x="11.022" y="62.458" class="g">defaced</text><text x="22.044" y="62.458" class="g">~</text><text x="24.048" y="62.458" class="g">30s+</text><text x="30.06" y="62.458" class="g">defaced</text><text x="38.076" y="62.458" class="g">and</text><text x="42.084" y="62.458" class="g">proud</text><text x="2.004" y="64.629" class="g">effaced</text><text x="11.022" y="64.629" class="g">effaced</text><text x="22.044" y="64.629" class="g">~</text><text x="24.048" y="64.629" class="g">30s+</text><text x="30.06" y="64.629" class="g">effaced</text><text x="38.076" y="64.629" class="g">from</text><text x="43.086" y="64.629" class="g">history</text><text y="68.971" class="g">Usage:</text><text x="7.014" y="68.971" class="g">git</text><text x="11.022" y="68.971" class="g">vanity</text><text x="18.036" y="68.971" class="g">-p</text><text x="21.042" y="68.971" class="g">cafe</text></svg></svg></g></g></svg></svg>