<svg xmlns="http://www.w3.org/2000/svg" xmlns:xlink="http://www.w3.org/1999/xlink" width="776" height="336.52"><rect width="776" height="336.52" rx="5" ry="5" class="a"/><svg y="0%" x="0%"><circle cx="20" cy="20" r="6" fill="#ff5f58"/><circle cx="40" cy="20" r="6" fill="#ffbd2e"/><circle cx="60" cy="20" r="6" fill="#18c132"/></svg><svg height="260.52" viewBox="0 0 72 26.052" width="720" x="23" xmlns="http://www.w3.org/2000/svg" xmlns:xlink="http://www.w3.org/1999/xlink" y="58"><style>@keyframes j{0%{transform:translateX(-288px)}.5%{transform:translateX(-144px)}20%{transform:translateX(-216px)}1%{transform:translateX(-1296px)}1.1%{transform:translateX(-504px)}.9%{transform:translateX(-1440px)}7.1%{transform:translateX(-1368px)}}.a{fill:#282d35}.f,.g{white-space:pre}.f{fill:#a8cc8c;font-weight:700}.g{fill:#b9c0cb}</style><g font-family="Monaco,Consolas,Menlo,'Bitstream Vera Sans Mono','Powerline Symbols',monospace" font-size="1.67"><defs><symbol id="1"><text y="1.67" class="f">$</text><text x="2.004" y="1.67" class="g">git</text><text x="6.012" y="1.67" class="g">vanity</text><text x="13.026" y="1.67" class="g">cafe</text></symbol><symbol id="2"><text y="1.67" class="g">✓</text><text x="2.004" y="1.67" class="g">3bbdb834d691</text><text x="15.03" y="1.67" class="g">→</text><text x="17.034" y="1.67" class="f">cafe</text><text x="21.042" y="1.67" class="g">8c1ba8b0...</text></symbol><symbol id="3"><text y="1.67" class="f">$</text><text x="2.004" y="1.67" class="g">git</text></symbol><symbol id="4"><text y="1.67" class="f">$</text><text x="2.004" y="1.67" class="g">git</text><text x="6.012" y="1.67" class="g">vanity</text></symbol><symbol id="5"><text y="1.67" class="f">$</text><text x="2.004" y="1.67" class="g">git</text><text x="6.012" y="1.67" class="g">vanity</text><text x="13.026" y="1.67" class="g">show</text></symbol><symbol id="a"><path fill="transparent" d="M0 0h72v13H0z"/></symbol><symbol id="b"><path fill="#6f7683" d="M0 0h1.102v2.171H0z"/></symbol></defs><path class="a" d="M0 0h72v26.052H0z"/><g style="animation-duration:5.023s;animation-iteration-count:infinite;animation-name:j;animation-timing-function:steps(1,end)"><svg width="1512"><svg><use xlink:href="#a"/><use xlink:href="#b" x="-.004"/></svg><svg x="72"><use xlink:href="#a"/><use xlink:href="#b" x="-.004" y="2.146"/><use xlink:href="#1"/></svg><svg x="144"><use xlink:href="#a"/><use xlink:href="#b" x="-.004" y="4.317"/><use xlink:href="#1"/><use xlink:href="#2" y="2.171"/></svg><svg x="216"><use xlink:href="#a"/><use xlink:href="#b" x="1.996" y="4.317"/><use xlink:href="#1"/><use xlink:href="#2" y="2.171"/><text y="6.012" class="f">$</text></svg><svg x="288"><use xlink:href="#a"/><use xlink:href="#b" x="2.996" y="4.317"/><use xlink:href="#1"/><use xlink:href="#2" y="2.171"/><text y="6.012" class="f">$</text><text x="2.004" y="6.012" class="g">g</text></svg><svg x="360"><use xlink:href="#a"/><use xlink:href="#b" x="3.996" y="4.317"/><use xlink:href="#1"/><use xlink:href="#2" y="2.171"/><text y="6.012" class="f">$</text><text x="2.004" y="6.012" class="g">gi</text></svg><svg x="432"><use xlink:href="#a"/><use xlink:href="#b" x="4.996" y="4.317"/><use xlink:href="#1"/><use xlink:href="#2" y="2.171"/><use xlink:href="#3" y="4.342"/></svg><svg x="504"><use xlink:href="#a"/><use xlink:href="#b" x="5.996" y="4.317"/><use xlink:href="#1"/><use xlink:href="#2" y="2.171"/><use xlink:href="#3" y="4.342"/></svg><svg x="576"><use xlink:href="#a"/><use xlink:href="#b" x="6.996" y="4.317"/><use xlink:href="#1"/><use xlink:href="#2" y="2.171"/><text y="6.012" class="f">$</text><text x="2.004" y="6.012" class="g">git</text><text x="6.012" y="6.012" class="g">v</text></svg><svg x="648"><use xlink:href="#a"/><use xlink:href="#b" x="7.996" y="4.317"/><use xlink:href="#1"/><use xlink:href="#2" y="2.171"/><text y="6.012" class="f">$</text><text x="2.004" y="6.012" class="g">git</text><text x="6.012" y="6.012" class="g">va</text></svg><svg x="720"><use xlink:href="#a"/><use xlink:href="#b" x="8.996" y="4.317"/><use xlink:href="#1"/><use xlink:href="#2" y="2.171"/><text y="6.012" class="f">$</text><text x="2.004" y="6.012" class="g">git</text><text x="6.012" y="6.012" class="g">van</text></svg><svg x="792"><use xlink:href="#a"/><use xlink:href="#b" x="9.996" y="4.317"/><use xlink:href="#1"/><use xlink:href="#2" y="2.171"/><text y="6.012" class="f">$</text><text x="2.004" y="6.012" class="g">git</text><text x="6.012" y="6.012" class="g">vani</text></svg><svg x="864"><use xlink:href="#a"/><use xlink:href="#b" x="10.996" y="4.317"/><use xlink:href="#1"/><use xlink:href="#2" y="2.171"/><text y="6.012" class="f">$</text><text x="2.004" y="6.012" class="g">git</text><text x="6.012" y="6.012" class="g">vanit</text></svg><svg x="936"><use xlink:href="#a"/><use xlink:href="#b" x="11.996" y="4.317"/><use xlink:href="#1"/><use xlink:href="#2" y="2.171"/><use xlink:href="#4" y="4.342"/></svg><svg x="1008"><use xlink:href="#a"/><use xlink:href="#b" x="12.996" y="4.317"/><use xlink:href="#1"/><use xlink:href="#2" y="2.171"/><use xlink:href="#4" y="4.342"/></svg><svg x="1080"><use xlink:href="#a"/><use xlink:href="#b" x="13.996" y="4.317"/><use xlink:href="#1"/><use xlink:href="#2" y="2.171"/><text y="6.012" class="f">$</text><text x="2.004" y="6.012" class="g">git</text><text x="6.012" y="6.012" class="g">vanity</text><text x="13.026" y="6.012" class="g">s</text></svg><svg x="1152"><use xlink:href="#a"/><use xlink:href="#b" x="14.996" y="4.317"/><use xlink:href="#1"/><use xlink:href="#2" y="2.171"/><text y="6.012" class="f">$</text><text x="2.004" y="6.012" class="g">git</text><text x="6.012" y="6.012" class="g">vanity</text><text x="13.026" y="6.012" class="g">sh</text></svg><svg x="1224"><use xlink:href="#a"/><use xlink:href="#b" x="15.996" y="4.317"/><use xlink:href="#1"/><use xlink:href="#2" y="2.171"/><text y="6.012" class="f">$</text><text x="2.004" y="6.012" class="g">git</text><text x="6.012" y="6.012" class="g">vanity</text><text x="13.026" y="6.012" class="g">sho</text></svg><svg x="1296"><use xlink:href="#a"/><use xlink:href="#b" x="16.996" y="4.317"/><use xlink:href="#1"/><use xlink:href="#2" y="2.171"/><use xlink:href="#5" y="4.342"/></svg><svg x="1368"><use xlink:href="#a"/><use xlink:href="#b" x="-.004" y="6.488"/><use xlink:href="#1"/><use xlink:href="#2" y="2.171"/><use xlink:href="#5" y="4.342"/></svg><svg x="1440"><use xlink:href="#a"/><use xlink:href="#b" x="-.004" y="15.172"/><use xlink:href="#1"/><use xlink:href="#2" y="2.171"/><use xlink:href="#5" y="4.342"/><text y="8.183" class="g">Commit:</text><text x="8.016" y="8.183" class="f">cafe8c1ba8b0cd3e1f24c6d5f2a26313c75178d6</text><text y="10.354" class="g">Vanity:</text><text x="8.016" y="10.354" class="g">yes</text><text x="12.024" y="10.354" class="g">(x-nonce</text><text x="21.042" y="10.354" class="g">present)</text><text y="12.525" class="g">Presets:</text><text x="9.018" y="12.525" class="g">cafe</text><text y="14.696" class="g">Message:</text><text x="9.018" y="14.696" class="g">feat:</text><text x="15.03" y="14.696" class="g">add</text><text x="19.038" y="14.696" class="g">user</text><text x="24.048" y="14.696" class="g">login</text></svg></svg></g></g></svg></svg>