<svg xmlns="http://www.w3.org/2000/svg" xmlns:xlink="http://www.w3.org/1999/xlink" width="776" height="379.94"><rect width="776" height="379.94" rx="5" ry="5" class="a"/><svg y="0%" x="0%"><circle cx="20" cy="20" r="6" fill="#ff5f58"/><circle cx="40" cy="20" r="6" fill="#ffbd2e"/><circle cx="60" cy="20" r="6" fill="#18c132"/></svg><svg height="303.94" viewBox="0 0 72 30.394" width="720" x="23" xmlns="http://www.w3.org/2000/svg" xmlns:xlink="http://www.w3.org/1999/xlink" y="58"><style>@keyframes j{0%{transform:translateX(-288px)}1.1%{transform:translateX(-72px)}.7%{transform:translateX(-144px)}.2%{transform:translateX(-216px)}.9%{transform:translateX(-1080px)}1%{transform:translateX(-1224px)}7.3%{transform:translateX(-1296px)}1.6%{transform:translateX(-1368px)}}.a{fill:#282d35}.f,.g{fill:#b9c0cb;white-space:pre}.g{fill:#a8cc8c;font-weight:700}</style><g font-family="Monaco,Consolas,Menlo,'Bitstream Vera Sans Mono','Powerline Symbols',monospace" font-size="1.67"><defs><symbol id="1"><text y="1.67" class="f">✓</text><text x="2.004" y="1.67" class="f">7730e0875072</text><text x="15.03" y="1.67" class="f">→</text><text x="17.034" y="1.67" class="g">cafe</text><text x="21.042" y="1.67" class="f">b75a66ad...</text></symbol><symbol id="2"><text y="1.67" class="f">✓</text><text x="2.004" y="1.67" class="f">15a6aaf06b06</text><text x="15.03" y="1.67" class="f">→</text><text x="17.034" y="1.67" class="g">dead</text><text x="21.042" y="1.67" class="f">416e5e4b...</text></symbol><symbol id="3"><text y="1.67" class="g">$</text><text x="2.004" y="1.67" class="f">git</text></symbol><symbol id="4"><text y="1.67" class="g">$</text><text x="2.004" y="1.67" class="f">git</text><text x="6.012" y="1.67" class="f">vanity</text></symbol><symbol id="5"><text y="1.67" class="g">$</text><text x="2.004" y="1.67" class="f">git</text><text x="6.012" y="1.67" class="f">vanity</text><text x="13.026" y="1.67" class="f">log</text></symbol><symbol id="a"><path fill="transparent" d="M0 0h72v15H0z"/></symbol><symbol id="b"><path fill="#6f7683" d="M0 0h1.102v2.171H0z"/></symbol></defs><path class="a" d="M0 0h72v30.394H0z"/><g style="animation-duration:5.031s;animation-iteration-count:infinite;animation-name:j;animation-timing-function:steps(1,end)"><svg width="1440"><svg><use xlink:href="#a"/><use xlink:href="#b" x="-.004"/></svg><svg x="72"><use xlink:href="#a"/><use xlink:href="#b" x="-.004" y="2.146"/><use xlink:href="#1"/></svg><svg x="144"><use xlink:href="#a"/><use xlink:href="#b" x="-.004" y="4.317"/><use xlink:href="#1"/><use xlink:href="#2" y="2.171"/></svg><svg x="216"><use xlink:href="#a"/><use xlink:href="#b" x="1.996" y="4.317"/><use xlink:href="#1"/><use xlink:href="#2" y="2.171"/><text y="6.012" class="g">$</text></svg><svg x="288"><use xlink:href="#a"/><use xlink:href="#b" x="2.996" y="4.317"/><use xlink:href="#1"/><use xlink:href="#2" y="2.171"/><text y="6.012" class="g">$</text><text x="2.004" y="6.012" class="f">g</text></svg><svg x="360"><use xlink:href="#a"/><use xlink:href="#b" x="3.996" y="4.317"/><use xlink:href="#1"/><use xlink:href="#2" y="2.171"/><text y="6.012" class="g">$</text><text x="2.004" y="6.012" class="f">gi</text></svg><svg x="432"><use xlink:href="#a"/><use xlink:href="#b" x="4.996" y="4.317"/><use xlink:href="#1"/><use xlink:href="#2" y="2.171"/><use xlink:href="#3" y="4.342"/></svg><svg x="504"><use xlink:href="#a"/><use xlink:href="#b" x="5.996" y="4.317"/><use xlink:href="#1"/><use xlink:href="#2" y="2.171"/><use xlink:href="#3" y="4.342"/></svg><svg x="576"><use xlink:href="#a"/><use xlink:href="#b" x="6.996" y="4.317"/><use xlink:href="#1"/><use xlink:href="#2" y="2.171"/><text y="6.012" class="g">$</text><text x="2.004" y="6.012" class="f">git</text><text x="6.012" y="6.012" class="f">v</text></svg><svg x="648"><use xlink:href="#a"/><use xlink:href="#b" x="7.996" y="4.317"/><use xlink:href="#1"/><use xlink:href="#2" y="2.171"/><text y="6.012" class="g">$</text><text x="2.004" y="6.012" class="f">git</text><text x="6.012" y="6.012" class="f">va</text></svg><svg x="720"><use xlink:href="#a"/><use xlink:href="#b" x="8.996" y="4.317"/><use xlink:href="#1"/><use xlink:href="#2" y="2.171"/><text y="6.012" class="g">$</text><text x="2.004" y="6.012" class="f">git</text><text x="6.012" y="6.012" class="f">van</text></svg><svg x="792"><use xlink:href="#a"/><use xlink:href="#b" x="9.996" y="4.317"/><use xlink:href="#1"/><use xlink:href="#2" y="2.171"/><text y="6.012" class="g">$</text><text x="2.004" y="6.012" class="f">git</text><text x="6.012" y="6.012" class="f">vani</text></svg><svg x="864"><use xlink:href="#a"/><use xlink:href="#b" x="10.996" y="4.317"/><use xlink:href="#1"/><use xlink:href="#2" y="2.171"/><text y="6.012" class="g">$</text><text x="2.004" y="6.012" class="f">git</text><text x="6.012" y="6.012" class="f">vanit</text></svg><svg x="936"><use xlink:href="#a"/><use xlink:href="#b" x="11.996" y="4.317"/><use xlink:href="#1"/><use xlink:href="#2" y="2.171"/><use xlink:href="#4" y="4.342"/></svg><svg x="1008"><use xlink:href="#a"/><use xlink:href="#b" x="12.996" y="4.317"/><use xlink:href="#1"/><use xlink:href="#2" y="2.171"/><use xlink:href="#4" y="4.342"/></svg><svg x="1080"><use xlink:href="#a"/><use xlink:href="#b" x="13.996" y="4.317"/><use xlink:href="#1"/><use xlink:href="#2" y="2.171"/><text y="6.012" class="g">$</text><text x="2.004" y="6.012" class="f">git</text><text x="6.012" y="6.012" class="f">vanity</text><text x="13.026" y="6.012" class="f">l</text></svg><svg x="1152"><use xlink:href="#a"/><use xlink:href="#b" x="14.996" y="4.317"/><use xlink:href="#1"/><use xlink:href="#2" y="2.171"/><text y="6.012" class="g">$</text><text x="2.004" y="6.012" class="f">git</text><text x="6.012" y="6.012" class="f">vanity</text><text x="13.026" y="6.012" class="f">lo</text></svg><svg x="1224"><use xlink:href="#a"/><use xlink:href="#b" x="15.996" y="4.317"/><use xlink:href="#1"/><use xlink:href="#2" y="2.171"/><use xlink:href="#5" y="4.342"/></svg><svg x="1296"><use xlink:href="#a"/><use xlink:href="#b" x="-.004" y="6.488"/><use xlink:href="#1"/><use xlink:href="#2" y="2.171"/><use xlink:href="#5" y="4.342"/></svg><svg x="1368"><use xlink:href="#a"/><use xlink:href="#b" x="-.004" y="17.343"/><use xlink:href="#1"/><use xlink:href="#2" y="2.171"/><use xlink:href="#5" y="4.342"/><text x="2.004" y="8.183" class="f">8ba8888</text><text x="10.02" y="8.183" class="f">docs:</text><text x="16.032" y="8.183" class="f">readme</text><text y="10.354" class="f">✓</text><text x="2.004" y="10.354" class="g">dead</text><text x="6.012" y="10.354" class="f">416</text><text x="10.02" y="10.354" class="f">fix:</text><text x="15.03" y="10.354" class="f">auth</text><text x="20.04" y="10.354" class="f">bug</text><text y="12.525" class="f">✓</text><text x="2.004" y="12.525" class="g">cafe</text><text x="6.012" y="12.525" class="f">b75</text><text x="10.02" y="12.525" class="f">feat:</text><text x="16.032" y="12.525" class="f">add</text><text x="20.04" y="12.525" class="f">login</text><text y="16.867" class="f">2/3</text><text x="4.008" y="16.867" class="f">commits</text><text x="12.024" y="16.867" class="f">have</text><text x="17.034" y="16.867" class="f">vanity</text><text x="24.048" y="16.867" class="f">hashes</text></svg></svg></g></g></svg></svg>