<svg xmlns="http://www.w3.org/2000/svg" xmlns:xlink="http://www.w3.org/1999/xlink" width="776" height="379.94"><rect width="776" height="379.94" rx="5" ry="5" class="a"/><svg y="0%" x="0%"><circle cx="20" cy="20" r="6" fill="#ff5f58"/><circle cx="40" cy="20" r="6" fill="#ffbd2e"/><circle cx="60" cy="20" r="6" fill="#18c132"/></svg><svg height="303.94" viewBox="0 0 72 30.394" width="720" x="23" xmlns="http://www.w3.org/2000/svg" xmlns:xlink="http://www.w3.org/1999/xlink" y="58"><style>@keyframes l{0%{transform:translateX(-864px)}.5%{transform:translateX(-72px)}.4%{transform:translateX(-576px)}20.5%{transform:translateX(-216px)}20.1%{transform:translateX(-792px)}1.2%{transform:translateX(-432px)}20%{transform:translateX(-504px)}20.4%{transform:translateX(-648px)}1%{transform:translateX(-1872px)}.9%{transform:translateX(-1656px)}7.2%{transform:translateX(-1944px)}1.1%{transform:translateX(-2016px)}}.a{fill:#282d35}.f,.g,.h,.i{white-space:pre}.f{fill:#a8cc8c;font-weight:700}.g,.h,.i{fill:#b9c0cb}.h,.i{fill:#dbab79}.i{fill:#66c2cd;font-weight:700}</style><g font-family="Monaco,Consolas,Menlo,'Bitstream Vera Sans Mono','Powerline Symbols',monospace" font-size="1.67"><defs><symbol id="1"><text y="1.67" class="f">$</text><text x="2.004" y="1.67" class="g">git</text><text x="6.012" y="1.67" class="g">log</text><text x="10.02" y="1.67" class="g">--oneline</text><text x="20.04" y="1.67" class="g">-1</text></symbol><symbol id="2"><text y="1.67" class="h">aa937d0</text><text x="8.016" y="1.67" class="h">(</text><text x="9.018" y="1.67" class="i">HEAD</text><text x="14.028" y="1.67" class="h">-&gt;</text><text x="17.034" y="1.67" class="f">main</text><text x="21.042" y="1.67" class="h">)</text><text x="23.046" y="1.67" class="g">feat:</text><text x="29.058" y="1.67" class="g">add</text><text x="33.066" y="1.67" class="g">user</text><text x="38.076" y="1.67" class="g">login</text></symbol><symbol id="3"><text y="1.67" class="f">$</text><text x="2.004" y="1.67" class="g">git</text><text x="6.012" y="1.67" class="g">vanity</text><text x="13.026" y="1.67" class="g">cafe</text></symbol><symbol id="4"><text y="1.67" class="g">✓</text><text x="2.004" y="1.67" class="g">aa937d0c3091</text><text x="15.03" y="1.67" class="g">→</text><text x="17.034" y="1.67" class="f">cafe</text><text x="21.042" y="1.67" class="g">9806404c...</text></symbol><symbol id="5"><text y="1.67" class="h">cafe980</text><text x="8.016" y="1.67" class="h">(</text><text x="9.018" y="1.67" class="i">HEAD</text><text x="14.028" y="1.67" class="h">-&gt;</text><text x="17.034" y="1.67" class="f">main</text><text x="21.042" y="1.67" class="h">)</text><text x="23.046" y="1.67" class="g">feat:</text><text x="29.058" y="1.67" class="g">add</text><text x="33.066" y="1.67" class="g">user</text><text x="38.076" y="1.67" class="g">login</text></symbol><symbol id="6"><text y="1.67" class="f">$</text><text x="2.004" y="1.67" class="g">git</text></symbol><symbol id="7"><text y="1.67" class="f">$</text><text x="2.004" y="1.67" class="g">git</text><text x="6.012" y="1.67" class="g">vanity</text></symbol><symbol id="8"><text y="1.67" class="f">$</text><text x="2.004" y="1.67" class="g">git</text><text x="6.012" y="1.67" class="g">vanity</text><text x="13.026" y="1.67" class="g">undo</text></symbol><symbol id="a"><path fill="transparent" d="M0 0h72v15H0z"/></symbol><symbol id="b"><path fill="#6f7683" d="M0 0h1.102v2.171H0z"/></symbol></defs><path class="a" d="M0 0h72v30.394H0z"/><g style="animation-duration:5.02s;animation-iteration-count:infinite;animation-name:l;animation-timing-function:steps(1,end)"><svg width="2088"><svg><use xlink:href="#a"/><use xlink:href="#b" x="-.004"/></svg><svg x="72"><use xlink:href="#a"/><use xlink:href="#b" x="-.004" y="2.146"/><use xlink:href="#1"/></svg><svg x="144"><use xlink:href="#a"/><use xlink:href="#b" x="-.004" y="2.146"/><use xlink:href="#1"/></svg><svg x="216"><use xlink:href="#a"/><use xlink:href="#b" x="-.004" y="4.317"/><use xlink:href="#1"/><use xlink:href="#2" y="2.171"/></svg><svg x="288"><use xlink:href="#a"/><use xlink:href="#b" x="-.004" y="4.317"/><use xlink:href="#1"/><use xlink:href="#2" y="2.171"/></svg><svg x="360"><use xlink:href="#a"/><use xlink:href="#b" x="-.004" y="6.488"/><use xlink:href="#1"/><use xlink:href="#2" y="2.171"/><use xlink:href="#3" y="4.342"/></svg><svg x="432"><use xlink:href="#a"/><use xlink:href="#b" x="-.004" y="8.659"/><use xlink:href="#1"/><use xlink:href="#2" y="2.171"/><use xlink:href="#3" y="4.342"/><use xlink:href="#4" y="6.513"/></svg><svg x="504"><use xlink:href="#a"/><use xlink:href="#b" x="-.004" y="10.83"/><use xlink:href="#1"/><use xlink:href="#2" y="2.171"/><use xlink:href="#3" y="4.342"/><use xlink:href="#4" y="6.513"/><use xlink:href="#1" y="8.684"/></svg><svg x="576"><use xlink:href="#a"/><use xlink:href="#b" x="-.004" y="10.83"/><use xlink:href="#1"/><use xlink:href="#2" y="2.171"/><use xlink:href="#3" y="4.342"/><use xlink:href="#4" y="6.513"/><use xlink:href="#1" y="8.684"/></svg><svg x="648"><use xlink:href="#a"/><use xlink:href="#b" x="-.004" y="13.001"/><use xlink:href="#1"/><use xlink:href="#2" y="2.171"/><use xlink:href="#3" y="4.342"/><use xlink:href="#4" y="6.513"/><use xlink:href="#1" y="8.684"/><use xlink:href="#5" y="10.855"/></svg><svg x="720"><use xlink:href="#a"/><use xlink:href="#b" x="-.004" y="13.001"/><use xlink:href="#1"/><use xlink:href="#2" y="2.171"/><use xlink:href="#3" y="4.342"/><use xlink:href="#4" y="6.513"/><use xlink:href="#1" y="8.684"/><use xlink:href="#5" y="10.855"/></svg><svg x="792"><use xlink:href="#a"/><use xlink:href="#b" x="1.996" y="13.001"/><use xlink:href="#1"/><use xlink:href="#2" y="2.171"/><use xlink:href="#3" y="4.342"/><use xlink:href="#4" y="6.513"/><use xlink:href="#1" y="8.684"/><use xlink:href="#5" y="10.855"/><text y="14.696" class="f">$</text></svg><svg x="864"><use xlink:href="#a"/><use xlink:href="#b" x="2.996" y="13.001"/><use xlink:href="#1"/><use xlink:href="#2" y="2.171"/><use xlink:href="#3" y="4.342"/><use xlink:href="#4" y="6.513"/><use xlink:href="#1" y="8.684"/><use xlink:href="#5" y="10.855"/><text y="14.696" class="f">$</text><text x="2.004" y="14.696" class="g">g</text></svg><svg x="936"><use xlink:href="#a"/><use xlink:href="#b" x="3.996" y="13.001"/><use xlink:href="#1"/><use xlink:href="#2" y="2.171"/><use xlink:href="#3" y="4.342"/><use xlink:href="#4" y="6.513"/><use xlink:href="#1" y="8.684"/><use xlink:href="#5" y="10.855"/><text y="14.696" class="f">$</text><text x="2.004" y="14.696" class="g">gi</text></svg><svg x="1008"><use xlink:href="#a"/><use xlink:href="#b" x="4.996" y="13.001"/><use xlink:href="#1"/><use xlink:href="#2" y="2.171"/><use xlink:href="#3" y="4.342"/><use xlink:href="#4" y="6.513"/><use xlink:href="#1" y="8.684"/><use xlink:href="#5" y="10.855"/><use xlink:href="#6" y="13.026"/></svg><svg x="1080"><use xlink:href="#a"/><use xlink:href="#b" x="5.996" y="13.001"/><use xlink:href="#1"/><use xlink:href="#2" y="2.171"/><use xlink:href="#3" y="4.342"/><use xlink:href="#4" y="6.513"/><use xlink:href="#1" y="8.684"/><use xlink:href="#5" y="10.855"/><use xlink:href="#6" y="13.026"/></svg><svg x="1152"><use xlink:href="#a"/><use xlink:href="#b" x="6.996" y="13.001"/><use xlink:href="#1"/><use xlink:href="#2" y="2.171"/><use xlink:href="#3" y="4.342"/><use xlink:href="#4" y="6.513"/><use xlink:href="#1" y="8.684"/><use xlink:href="#5" y="10.855"/><text y="14.696" class="f">$</text><text x="2.004" y="14.696" class="g">git</text><text x="6.012" y="14.696" class="g">v</text></svg><svg x="1224"><use xlink:href="#a"/><use xlink:href="#b" x="7.996" y="13.001"/><use xlink:href="#1"/><use xlink:href="#2" y="2.171"/><use xlink:href="#3" y="4.342"/><use xlink:href="#4" y="6.513"/><use xlink:href="#1" y="8.684"/><use xlink:href="#5" y="10.855"/><text y="14.696" class="f">$</text><text x="2.004" y="14.696" class="g">git</text><text x="6.012" y="14.696" class="g">va</text></svg><svg x="1296"><use xlink:href="#a"/><use xlink:href="#b" x="8.996" y="13.001"/><use xlink:href="#1"/><use xlink:href="#2" y="2.171"/><use xlink:href="#3" y="4.342"/><use xlink:href="#4" y="6.513"/><use xlink:href="#1" y="8.684"/><use xlink:href="#5" y="10.855"/><text y="14.696" class="f">$</text><text x="2.004" y="14.696" class="g">git</text><text x="6.012" y="14.696" class="g">van</text></svg><svg x="1368"><use xlink:href="#a"/><use xlink:href="#b" x="9.996" y="13.001"/><use xlink:href="#1"/><use xlink:href="#2" y="2.171"/><use xlink:href="#3" y="4.342"/><use xlink:href="#4" y="6.513"/><use xlink:href="#1" y="8.684"/><use xlink:href="#5" y="10.855"/><text y="14.696" class="f">$</text><text x="2.004" y="14.696" class="g">git</text><text x="6.012" y="14.696" class="g">vani</text></svg><svg x="1440"><use xlink:href="#a"/><use xlink:href="#b" x="10.996" y="13.001"/><use xlink:href="#1"/><use xlink:href="#2" y="2.171"/><use xlink:href="#3" y="4.342"/><use xlink:href="#4" y="6.513"/><use xlink:href="#1" y="8.684"/><use xlink:href="#5" y="10.855"/><text y="14.696" class="f">$</text><text x="2.004" y="14.696" class="g">git</text><text x="6.012" y="14.696" class="g">vanit</text></svg><svg x="1512"><use xlink:href="#a"/><use xlink:href="#b" x="11.996" y="13.001"/><use xlink:href="#1"/><use xlink:href="#2" y="2.171"/><use xlink:href="#3" y="4.342"/><use xlink:href="#4" y="6.513"/><use xlink:href="#1" y="8.684"/><use xlink:href="#5" y="10.855"/><use xlink:href="#7" y="13.026"/></svg><svg x="1584"><use xlink:href="#a"/><use xlink:href="#b" x="12.996" y="13.001"/><use xlink:href="#1"/><use xlink:href="#2" y="2.171"/><use xlink:href="#3" y="4.342"/><use xlink:href="#4" y="6.513"/><use xlink:href="#1" y="8.684"/><use xlink:href="#5" y="10.855"/><use xlink:href="#7" y="13.026"/></svg><svg x="1656"><use xlink:href="#a"/><use xlink:href="#b" x="13.996" y="13.001"/><use xlink:href="#1"/><use xlink:href="#2" y="2.171"/><use xlink:href="#3" y="4.342"/><use xlink:href="#4" y="6.513"/><use xlink:href="#1" y="8.684"/><use xlink:href="#5" y="10.855"/><text y="14.696" class="f">$</text><text x="2.004" y="14.696" class="g">git</text><text x="6.012" y="14.696" class="g">vanity</text><text x="13.026" y="14.696" class="g">u</text></svg><svg x="1728"><use xlink:href="#a"/><use xlink:href="#b" x="14.996" y="13.001"/><use xlink:href="#1"/><use xlink:href="#2" y="2.171"/><use xlink:href="#3" y="4.342"/><use xlink:href="#4" y="6.513"/><use xlink:href="#1" y="8.684"/><use xlink:href="#5" y="10.855"/><text y="14.696" class="f">$</text><text x="2.004" y="14.696" class="g">git</text><text x="6.012" y="14.696" class="g">vanity</text><text x="13.026" y="14.696" class="g">un</text></svg><svg x="1800"><use xlink:href="#a"/><use xlink:href="#b" x="15.996" y="13.001"/><use xlink:href="#1"/><use xlink:href="#2" y="2.171"/><use xlink:href="#3" y="4.342"/><use xlink:href="#4" y="6.513"/><use xlink:href="#1" y="8.684"/><use xlink:href="#5" y="10.855"/><text y="14.696" class="f">$</text><text x="2.004" y="14.696" class="g">git</text><text x="6.012" y="14.696" class="g">vanity</text><text x="13.026" y="14.696" class="g">und</text></svg><svg x="1872"><use xlink:href="#a"/><use xlink:href="#b" x="16.996" y="13.001"/><use xlink:href="#1"/><use xlink:href="#2" y="2.171"/><use xlink:href="#3" y="4.342"/><use xlink:href="#4" y="6.513"/><use xlink:href="#1" y="8.684"/><use xlink:href="#5" y="10.855"/><use xlink:href="#8" y="13.026"/></svg><svg x="1944"><use xlink:href="#a"/><use xlink:href="#b" x="-.004" y="15.172"/><use xlink:href="#1"/><use xlink:href="#2" y="2.171"/><use xlink:href="#3" y="4.342"/><use xlink:href="#4" y="6.513"/><use xlink:href="#1" y="8.684"/><use xlink:href="#5" y="10.855"/><use xlink:href="#8" y="13.026"/></svg><svg x="2016"><use xlink:href="#a"/><use xlink:href="#b" x="-.004" y="17.343"/><use xlink:href="#1"/><use xlink:href="#2" y="2.171"/><use xlink:href="#3" y="4.342"/><use xlink:href="#4" y="6.513"/><use xlink:href="#1" y="8.684"/><use xlink:href="#5" y="10.855"/><use xlink:href="#8" y="13.026"/><text y="16.867" class="g">✓</text><text x="2.004" y="16.867" class="f">cafe9806404c</text><text x="15.03" y="16.867" class="g">→</text><text x="17.034" y="16.867" class="g">aa937d0c3091</text><text x="30.06" y="16.867" class="g">(nonce</text><text x="37.074" y="16.867" class="g">removed)</text></svg></svg></g></g></svg></svg>